<svg width="78" height="78" viewBox="0 0 78 78" fill="none" xmlns="http://www.w3.org/2000/svg">
<circle cx="46.9999" cy="30.9999" r="14.9999" fill="#92D5FF" stroke="white" stroke-width="6"/>
<circle cx="25.5" cy="46.5" r="9.5" fill="#92D5FF" stroke="white" stroke-width="6"/>
<circle cx="42" cy="55" r="7" fill="#92D5FF" stroke="white" stroke-width="6"/>
<circle cx="46.9999" cy="30.9999" r="13.4999" fill="#92D5FF" stroke="black" stroke-width="3"/>
<circle cx="46.9999" cy="30.9999" r="11.9999" fill="#92D5FF"/>
<path fill-rule="evenodd" clip-rule="evenodd" d="M54.3751 26.9744C53.7389 25.8116 53.7003 24.3007 54.6376 23.3634L55.4861 22.5149C60.1723 27.2012 60.1723 34.7991 55.4861 39.4853C50.7998 44.1716 43.2019 44.1716 38.5156 39.4853L39.3641 38.6368C40.3014 37.6996 41.8123 37.7382 42.9752 38.3744C44.1705 39.0283 45.5423 39.4001 47.0009 39.4001C51.64 39.4001 55.4008 35.6393 55.4008 31.0001C55.4008 29.5415 55.029 28.1698 54.3751 26.9744Z" fill="#6DC7FF"/>
<path d="M40.21 28.6C40.933 26.5542 42.5545 24.9328 44.6002 24.2097" stroke="#D8F0FF" stroke-width="3" stroke-linecap="round"/>
<circle cx="25.5" cy="46.5" r="8" fill="#92D5FF" stroke="black" stroke-width="3"/>
<path d="M23.333 45.4166C23.5114 44.9118 23.9115 44.5117 24.4163 44.3333" stroke="#D8F0FF" stroke-width="3" stroke-linecap="round"/>
<circle cx="42" cy="55" r="5.5" fill="#92D5FF" stroke="black" stroke-width="3"/>
<path d="M41 54.5C41.1647 54.034 41.534 53.6647 42 53.5" stroke="#D8F0FF" stroke-width="3" stroke-linecap="round"/>
</svg>
