<svg width="78" height="78" viewBox="0 0 78 78" fill="none" xmlns="http://www.w3.org/2000/svg">
  <!-- White border pass for all petals -->
  <ellipse cx="39" cy="23" rx="9.5" ry="13" fill="#FF8CC8" stroke="white" stroke-width="6" transform="rotate(0 39 39)"/>
  <ellipse cx="39" cy="23" rx="9.5" ry="13" fill="#FF8CC8" stroke="white" stroke-width="6" transform="rotate(72 39 39)"/>
  <ellipse cx="39" cy="23" rx="9.5" ry="13" fill="#FF8CC8" stroke="white" stroke-width="6" transform="rotate(144 39 39)"/>
  <ellipse cx="39" cy="23" rx="9.5" ry="13" fill="#FF8CC8" stroke="white" stroke-width="6" transform="rotate(216 39 39)"/>
  <ellipse cx="39" cy="23" rx="9.5" ry="13" fill="#FF8CC8" stroke="white" stroke-width="6" transform="rotate(288 39 39)"/>
  <!-- Petal fills -->
  <ellipse cx="39" cy="23" rx="9.5" ry="13" fill="#FF8CC8" transform="rotate(0 39 39)"/>
  <ellipse cx="39" cy="23" rx="9.5" ry="13" fill="#FF8CC8" transform="rotate(72 39 39)"/>
  <ellipse cx="39" cy="23" rx="9.5" ry="13" fill="#FF8CC8" transform="rotate(144 39 39)"/>
  <ellipse cx="39" cy="23" rx="9.5" ry="13" fill="#FF8CC8" transform="rotate(216 39 39)"/>
  <ellipse cx="39" cy="23" rx="9.5" ry="13" fill="#FF8CC8" transform="rotate(288 39 39)"/>
  <!-- Petal inner highlights -->
  <ellipse cx="39" cy="20.5" rx="5" ry="7" fill="#FFBBE0" transform="rotate(0 39 39)"/>
  <ellipse cx="39" cy="20.5" rx="5" ry="7" fill="#FFBBE0" transform="rotate(72 39 39)"/>
  <ellipse cx="39" cy="20.5" rx="5" ry="7" fill="#FFBBE0" transform="rotate(144 39 39)"/>
  <ellipse cx="39" cy="20.5" rx="5" ry="7" fill="#FFBBE0" transform="rotate(216 39 39)"/>
  <ellipse cx="39" cy="20.5" rx="5" ry="7" fill="#FFBBE0" transform="rotate(288 39 39)"/>
  <!-- Black outline pass for all petals -->
  <ellipse cx="39" cy="23" rx="9.5" ry="13" stroke="black" stroke-width="3" transform="rotate(0 39 39)"/>
  <ellipse cx="39" cy="23" rx="9.5" ry="13" stroke="black" stroke-width="3" transform="rotate(72 39 39)"/>
  <ellipse cx="39" cy="23" rx="9.5" ry="13" stroke="black" stroke-width="3" transform="rotate(144 39 39)"/>
  <ellipse cx="39" cy="23" rx="9.5" ry="13" stroke="black" stroke-width="3" transform="rotate(216 39 39)"/>
  <ellipse cx="39" cy="23" rx="9.5" ry="13" stroke="black" stroke-width="3" transform="rotate(288 39 39)"/>
  <!-- Center: white border -->
  <circle cx="39" cy="39" r="11" fill="#FFD03A" stroke="white" stroke-width="6"/>
  <!-- Center: fill + black outline -->
  <circle cx="39" cy="39" r="11" fill="#FFD03A" stroke="black" stroke-width="3"/>
  <!-- Center: inner bright highlight -->
  <circle cx="39" cy="39" r="9" fill="#FFD03A"/>
  <path d="M34 35.5C34.8 33.5 36.8 32.2 39 32.2" stroke="#FFE980" stroke-width="2.5" stroke-linecap="round"/>
</svg>
