<svg width="78" height="78" viewBox="0 0 78 78" fill="none" xmlns="http://www.w3.org/2000/svg">
<path d="M44.8419 31.7734C42.9886 30.3956 42.603 27.7762 43.9806 25.9227C46.0981 23.0742 48.801 20.7117 51.9074 18.9947L52.7621 18.5227C54.2119 17.7214 55.9965 17.8412 57.3259 18.8294L57.3949 18.8807C59.8282 20.6897 59.5776 24.4086 56.9239 25.8754C54.6017 27.159 52.5514 28.96 50.9616 31.0987C49.604 32.925 46.9843 33.366 45.1037 31.968L44.8419 31.7734Z" fill="#95CA39" stroke="white" stroke-width="6"/>
<path d="M26.0479 29.928C30.9529 23.3295 40.8118 22.6416 47.6953 27.7581C54.4942 32.8121 56.996 42.2076 52.0352 48.8811L52.0264 48.8938L52.0166 48.9055C46.8222 55.7418 39.9241 58.9163 34.4502 60.384C31.7074 61.1194 29.2824 61.4378 27.5332 61.5735C26.6568 61.6415 25.9442 61.6643 25.4395 61.6692C25.1871 61.6716 24.9859 61.6701 24.8418 61.6672C24.7697 61.6658 24.711 61.6638 24.668 61.6624C24.6467 61.6616 24.6291 61.661 24.6152 61.6604C24.6082 61.6601 24.6018 61.6596 24.5967 61.6594L24.5869 61.6594L24.7227 58.6624L24.584 61.6594L22.5977 61.5676L21.9082 59.7004C21.8349 59.5016 20.3993 55.5553 20.1855 49.9592C19.9711 44.3434 20.9849 36.8894 26.0283 29.9534L26.0479 29.928Z" fill="#95CA39" stroke="white" stroke-width="6"/>
<path d="M45.7368 30.5696C44.5483 29.686 44.301 28.0062 45.1845 26.8176C47.1741 24.141 49.7137 21.9211 52.6326 20.3077L53.4872 19.8357C54.4222 19.3188 55.5736 19.3959 56.431 20.0333L56.5 20.0845C58.0577 21.2426 57.8974 23.6233 56.1988 24.5624L55.7314 24.8295C53.4118 26.1956 51.3664 28.0398 49.7577 30.2038C48.8842 31.3789 47.2008 31.6579 45.9986 30.7642L45.7368 30.5696Z" fill="#95CA39" stroke="black" stroke-width="3"/>
<path d="M24.723 58.6623C24.7045 58.6119 19.3923 44.1808 28.455 31.7174C32.1987 26.6812 40.1068 25.8552 45.906 30.166C51.7053 34.4769 53.3714 42.0548 49.6277 47.091C40.2884 59.3824 24.723 58.6623 24.723 58.6623Z" fill="#95CA39"/>
<path d="M49.0281 48.1039C52.8856 43.2325 52.5646 35.3343 47.0408 30.8276L44.8889 32.9795C48.9831 36.5783 49.0015 42.9143 46.5138 46.0809C42.2575 51.3372 36.7461 53.6983 32.1673 54.7397C30.3892 55.1441 28.7793 55.3424 27.4831 55.4344C26.9257 55.474 26.4024 55.726 26.041 56.1521L23.9481 58.6195C23.9607 58.6614 23.9072 58.803 23.9072 58.803C23.9908 58.8106 38.8705 60.0281 48.5699 48.6553L49.0281 48.1039Z" fill="#74A324"/>
<path d="M27.25 30.8228C31.5744 25.0054 40.4584 24.2487 46.7998 28.9624C53.0987 33.6448 55.1829 42.131 50.8311 47.9858L50.8262 47.9927L50.8213 47.9985C45.8893 54.4895 39.3269 57.523 34.0605 58.9351C31.4245 59.6419 29.0932 59.9485 27.416 60.0786C26.5766 60.1437 25.8981 60.1648 25.4238 60.1694C25.1868 60.1717 25.0003 60.17 24.8701 60.1675C24.805 60.1662 24.7532 60.1648 24.7168 60.1636C24.6988 60.163 24.6845 60.162 24.6738 60.1616C24.6684 60.1614 24.6637 60.1618 24.6602 60.1616C24.6587 60.1616 24.6574 60.1607 24.6563 60.1606L24.6543 60.1606L24.7217 58.6626L24.6523 60.1606L23.6592 60.1147L23.3145 59.1821C23.2744 59.0735 21.8893 55.2885 21.6836 49.9019C21.4776 44.5079 22.4538 37.4192 27.2412 30.8354L27.2451 30.8286L27.25 30.8228Z" stroke="black" stroke-width="3"/>
<path d="M28.455 31.7176C32.162 26.7308 39.9526 25.8716 45.7353 30.0407L43.4926 32.4136C38.9568 29.3903 33.4747 30.4002 31.0598 33.6227C27.0842 39.0943 26.23 45.0291 26.4092 49.7214C26.4788 51.5435 26.7039 53.1499 26.9505 54.4257C27.0566 54.9744 26.9486 55.5451 26.6305 56.0045L24.7889 58.6646C24.7452 58.6633 24.7227 58.6623 24.7227 58.6623C24.6937 58.5835 19.5661 44.6153 28.041 32.3029L28.455 31.7176Z" fill="#A6E43C"/>
<path d="M46.5467 29.3027C40.9873 34.4467 34.0625 43.8715 29.5361 52.186" stroke="black" stroke-width="3" stroke-linecap="round"/>
</svg>
