<svg width="78" height="78" viewBox="0 0 78 78" fill="none" xmlns="http://www.w3.org/2000/svg">
<path d="M50.8818 14.0007C54.7152 14.0008 57.1229 18.1373 55.2295 21.4705L48.3584 33.5652H50.8213C54.0905 33.5655 55.979 37.275 54.0557 39.9187L35.8691 64.9148C33.3221 68.4157 27.8034 65.9386 28.7266 61.7087L32.1367 46.0867H25.2861C22.6768 46.0864 20.7662 43.628 21.4102 41.0994L27.3516 17.7673L27.4092 17.5613C28.0413 15.4561 29.9825 14.0007 32.1973 14.0007H50.8818Z" stroke="white" stroke-width="6"/>
<path d="M44.0524 35.071C43.6737 35.7377 44.1552 36.565 44.9219 36.565H50.8209C51.6382 36.565 52.1104 37.4923 51.6295 38.1533L33.4434 63.1503C32.8066 64.0256 31.427 63.4063 31.6578 62.3488L35.5967 44.3C35.7328 43.6765 35.2579 43.0868 34.6197 43.0868H25.2866C24.6342 43.0868 24.1565 42.4722 24.3175 41.84L30.2591 18.5072C30.4848 17.621 31.2828 17.0007 32.1972 17.0007H50.8817C52.4151 17.0007 53.3781 18.6554 52.6207 19.9886L44.0524 35.071Z" fill="#FFD900"/>
<path d="M30.6424 17H34.5173L27.8746 43.0871H24L30.6424 17Z" fill="#FFFADB"/>
<path d="M48.911 17H55.0001L45.5893 36.5653H42.6328C41.9268 36.5653 41.4431 35.8535 41.7031 35.1971L48.911 17Z" fill="#FF9D00"/>
<path d="M50.0174 36.5654H52.7852L33.9642 64.8264H33.5871C32.7948 64.8264 32.3172 63.949 32.7473 63.2836L50.0174 36.5654Z" fill="#FF9D00"/>
<path d="M29.8043 62.5238C29.6666 63.1479 30.1417 63.7392 30.7808 63.7392L31.5606 63.7392C32.0019 63.7392 32.391 63.4499 32.5181 63.0274L39.1127 41.1142C39.3059 40.4724 38.8254 39.826 38.1551 39.826H35.6149C35.1456 39.826 34.7394 40.1523 34.6383 40.6106L29.8043 62.5238Z" fill="#FFFADB"/>
<rect x="26.2139" y="39.8262" width="9.96405" height="4.34785" fill="#FFFADB"/>
<path d="M50.8818 15.5007C53.5652 15.5008 55.2501 18.3961 53.9248 20.7292L45.7812 35.0652H50.8213C52.8644 35.0655 54.0448 37.3836 52.8428 39.0359L34.6562 64.033C33.0643 66.2208 29.6155 64.6726 30.1924 62.0291L33.998 44.5867H25.2861C23.6554 44.5864 22.4618 43.0498 22.8643 41.4695L28.8057 18.1375C29.2006 16.5866 30.5969 15.5007 32.1973 15.5007H50.8818Z" stroke="black" stroke-width="3"/>
</svg>
