<svg width="78" height="78" viewBox="0 0 78 78" fill="none" xmlns="http://www.w3.org/2000/svg">
<mask id="path-2-outside-1_58_65" maskUnits="userSpaceOnUse" x="16" y="10" width="46" height="62" fill="black">
<rect fill="white" x="16" y="10" width="46" height="62"/>
<path d="M39 16C48.3888 16 56 24.5066 56 35C56 44.3493 49.9579 52.1204 42 53.7041V64C42 65.1046 41.1046 66 40 66H38C36.8954 66 36 65.1046 36 64V53.7041C28.0421 52.1204 22 44.3493 22 35C22 24.5066 29.6112 16 39 16Z"/>
</mask>
<path d="M39 16C48.3888 16 56 24.5066 56 35C56 44.3493 49.9579 52.1204 42 53.7041V64C42 65.1046 41.1046 66 40 66H38C36.8954 66 36 65.1046 36 64V53.7041C28.0421 52.1204 22 44.3493 22 35C22 24.5066 29.6112 16 39 16Z" fill="#D9D9D9"/>
<path d="M42 53.7041L40.8289 47.8195L36 48.7805V53.7041H42ZM40 66V72V72V66ZM36 64H30V64H36ZM36 53.7041H42V48.7805L37.1711 47.8195L36 53.7041ZM39 16V22C44.465 22 50 27.1753 50 35H56H62C62 21.8379 52.3127 10 39 10V16ZM56 35H50C50 41.9023 45.5914 46.8717 40.8289 47.8195L42 53.7041L43.1711 59.5887C54.3245 57.3691 62 46.7962 62 35H56ZM42 53.7041H36V64H42H48V53.7041H42ZM42 64H36C36 61.7909 37.7909 60 40 60V66V72C44.4183 72 48 68.4183 48 64H42ZM40 66V60H38V66V72H40V66ZM38 66V60C40.2091 60 42 61.7909 42 64H36H30C30 68.4183 33.5817 72 38 72V66ZM36 64H42V53.7041H36H30V64H36ZM36 53.7041L37.1711 47.8195C32.4086 46.8717 28 41.9023 28 35H22H16C16 46.7962 23.6755 57.3691 34.8289 59.5887L36 53.7041ZM22 35H28C28 27.1753 33.535 22 39 22V16V10C25.6873 10 16 21.8379 16 35H22Z" fill="white" mask="url(#path-2-outside-1_58_65)"/>
<mask id="path-4-outside-2_58_65" maskUnits="userSpaceOnUse" x="19" y="13" width="40" height="56" fill="black">
<rect fill="white" x="19" y="13" width="40" height="56"/>
<path d="M39 16C48.3888 16 56 24.5066 56 35C56 44.3493 49.9579 52.1204 42 53.7041V64C42 65.1046 41.1046 66 40 66H38C36.8954 66 36 65.1046 36 64V53.7041C28.0421 52.1204 22 44.3493 22 35C22 24.5066 29.6112 16 39 16Z"/>
</mask>
<path d="M39 16C48.3888 16 56 24.5066 56 35C56 44.3493 49.9579 52.1204 42 53.7041V64C42 65.1046 41.1046 66 40 66H38C36.8954 66 36 65.1046 36 64V53.7041C28.0421 52.1204 22 44.3493 22 35C22 24.5066 29.6112 16 39 16Z" fill="#D9D9D9"/>
<path d="M42 53.7041L41.4144 50.7618L39 51.2423V53.7041H42ZM40 66V69V69V66ZM36 64H33V64H36ZM36 53.7041H39V51.2423L36.5855 50.7618L36 53.7041ZM39 16V19C46.4269 19 53 25.8409 53 35H56H59C59 23.1722 50.3508 13 39 13V16ZM56 35H53C53 43.1258 47.7747 49.4961 41.4144 50.7618L42 53.7041L42.5856 56.6464C52.1412 54.7447 59 45.5727 59 35H56ZM42 53.7041H39V64H42H45V53.7041H42ZM42 64H39C39 63.4477 39.4477 63 40 63V66V69C42.7614 69 45 66.7614 45 64H42ZM40 66V63H38V66V69H40V66ZM38 66V63C38.5523 63 39 63.4477 39 64H36H33C33 66.7614 35.2386 69 38 69V66ZM36 64H39V53.7041H36H33V64H36ZM36 53.7041L36.5855 50.7618C30.2253 49.4961 25 43.1258 25 35H22H19C19 45.5727 25.8588 54.7447 35.4145 56.6464L36 53.7041ZM22 35H25C25 25.8409 31.5731 19 39 19V16V13C27.6492 13 19 23.1722 19 35H22Z" fill="black" mask="url(#path-4-outside-2_58_65)"/>
<path d="M22 35C22 45.4934 29.6112 54 39 54V16C29.6112 16 22 24.5066 22 35Z" fill="white"/>
<path d="M39 20.5C46.1287 20.5 51.5 27.2365 51.5 35C51.5 42.7635 46.1287 49.5 39 49.5C31.8713 49.5 26.5 42.7635 26.5 35C26.5 27.2365 31.8713 20.5 39 20.5Z" fill="#92D5FF" stroke="black" stroke-width="3"/>
<path d="M42 54H39V66H40C41.1046 66 42 65.1046 42 64V54Z" fill="#A5A5A5"/>
<path d="M47.0635 41.0889C47.0734 41.0698 47.0829 41.0504 47.0928 41.0312C47.083 41.0505 47.0733 41.0697 47.0635 41.0889ZM47.2578 40.6914C47.2879 40.628 47.3176 40.5643 47.3467 40.5C47.3179 40.5643 47.2876 40.6278 47.2578 40.6914ZM48.415 36.5254C48.268 37.8618 47.9307 39.1419 47.4287 40.3135C47.9263 39.1632 48.2677 37.8902 48.415 36.5254ZM48.4336 36.3574C48.4432 36.257 48.4515 36.1561 48.459 36.0547C48.4513 36.1559 48.4434 36.2568 48.4336 36.3574ZM48.4766 35.7754C48.4807 35.6994 48.4864 35.6233 48.4893 35.5469C48.4863 35.6232 48.4808 35.6993 48.4766 35.7754ZM48.4893 34.4521C48.4861 34.3691 48.4802 34.2865 48.4756 34.2041C48.4803 34.2866 48.486 34.3693 48.4893 34.4521ZM48.459 33.9443C48.4515 33.8429 48.4432 33.742 48.4336 33.6416C48.4434 33.7422 48.4513 33.8432 48.459 33.9443ZM47.4287 29.6855C47.927 30.8482 48.2632 32.1179 48.4121 33.4434C48.2629 32.09 47.9227 30.8273 47.4287 29.6855ZM47.3467 29.499C47.3176 29.4348 47.2879 29.3711 47.2578 29.3076C47.2876 29.3712 47.3179 29.4347 47.3467 29.499ZM47.0928 28.9678C47.0829 28.9486 47.0734 28.9293 47.0635 28.9102C47.0733 28.9293 47.083 28.9485 47.0928 28.9678Z" stroke="#6DC7FF" stroke-width="3"/>
<path d="M35.9796 30.125L31.6495 32.625C31.2476 32.8571 31 33.2859 31 33.75C31 34.75 32.0825 35.375 32.9486 34.875L37.2787 32.375C37.6806 32.1429 37.9282 31.7141 37.9282 31.25C37.9282 30.25 36.8457 29.625 35.9796 30.125Z" fill="white"/>
<path d="M35.9796 35.125L31.6495 37.625C31.2476 37.8571 31 38.2859 31 38.75C31 39.75 32.0825 40.375 32.9486 39.875L37.2787 37.375C37.6806 37.1429 37.9282 36.7141 37.9282 36.25C37.9282 35.25 36.8457 34.625 35.9796 35.125Z" fill="white"/>
</svg>
