<svg width="78" height="78" viewBox="0 0 78 78" fill="none" xmlns="http://www.w3.org/2000/svg">
<path d="M22.7425 60.5131C19.0934 61.445 15.7436 58.0951 16.6755 54.446L16.7839 54.0808L21.5092 39.9034C21.902 38.7252 22.5639 37.6542 23.4421 36.776L43.1133 17.1047C45.0659 15.1521 48.2317 15.1521 50.1844 17.1047L60.0839 27.0042C62.0365 28.9568 62.0365 32.1227 60.0839 34.0753L40.4126 53.7465C39.5344 54.6247 38.4634 55.2866 37.2852 55.6793L23.1078 60.4047L22.7425 60.5131Z" fill="#EDBB8A" stroke="white" stroke-width="6" stroke-linejoin="round"/>
<path d="M22.6341 58.9822C19.898 59.8942 17.2944 57.2906 18.2064 54.5545L22.9324 40.3778C23.2515 39.4205 23.7892 38.5502 24.5027 37.8366L44.174 18.1654C45.5408 16.7986 47.7569 16.7986 49.1237 18.1654L59.0232 28.0649C60.39 29.4317 60.39 31.6478 59.0232 33.0146L39.352 52.6859C38.6384 53.3994 37.7681 53.937 36.8108 54.2561L22.6341 58.9822Z" fill="#EDBB8A" stroke="black" stroke-width="3" stroke-linejoin="round"/>
<path d="M20.4862 49.6317L27.5572 56.7028L18.3649 58.8241L20.4862 49.6317Z" fill="black"/>
<path d="M25.4359 36.9037L44.1742 18.1653C45.5411 16.7985 47.7572 16.7985 49.124 18.1653L59.0235 28.0648C60.3903 29.4317 60.3903 31.6477 59.0235 33.0146L40.2852 51.7529L25.4359 36.9037Z" fill="#C43838" stroke="black" stroke-width="3"/>
<path d="M57.9627 31.954C58.7438 31.173 58.7438 29.9066 57.9627 29.1256L57.2556 28.4185L38.1638 47.5104L40.2851 49.6317L57.9627 31.954Z" fill="#911A1A"/>
<path d="M45.2342 19.226C46.0153 18.4449 47.2816 18.4449 48.0627 19.226L53.0124 24.1757L33.9205 43.2676L27.5566 36.9037L45.2342 19.226Z" fill="#DF4848"/>
<path d="M27.5572 41.1464L25.4359 39.0251C24.9709 39.4901 24.6206 40.057 24.4126 40.6809L21.1933 50.3388L21.9004 51.0459L27.5572 41.1464Z" fill="#FFDAB5"/>
<path d="M36.0421 49.6317L38.1634 51.753C37.6984 52.2181 37.1315 52.5684 36.5076 52.7764L26.8497 55.9957L26.1426 55.2886L36.0421 49.6317Z" fill="#D59F6A"/>
</svg>
