<?xml version="1.0" encoding="UTF-8"?>
<svg id="Layer_1" xmlns="http://www.w3.org/2000/svg" xmlns:xlink="http://www.w3.org/1999/xlink" version="1.1" viewBox="0 0 32 32">
  <!-- Generator: Adobe Illustrator 30.1.0, SVG Export Plug-In . SVG Version: 2.1.1 Build 136)  -->
  <defs>
    <style>
      .st0 {
        fill: url(#radial-gradient12);
      }

      .st1 {
        fill: url(#radial-gradient10);
      }

      .st2 {
        fill: url(#radial-gradient13);
      }

      .st3 {
        fill: url(#radial-gradient11);
      }

      .st4 {
        fill: url(#radial-gradient14);
      }

      .st5 {
        fill: url(#radial-gradient);
      }

      .st6 {
        fill: url(#radial-gradient1);
      }

      .st7 {
        fill: url(#radial-gradient6);
      }

      .st8 {
        fill: url(#radial-gradient9);
      }

      .st9 {
        fill: url(#radial-gradient8);
      }

      .st10 {
        fill: url(#radial-gradient3);
      }

      .st11 {
        fill: url(#radial-gradient2);
      }

      .st12 {
        fill: url(#radial-gradient5);
      }

      .st13 {
        fill: url(#radial-gradient4);
      }

      .st14 {
        fill: url(#radial-gradient7);
      }
    </style>
    <radialGradient id="radial-gradient" cx="-603.8" cy="563.3" fx="-603.8" fy="563.3" r="1" gradientTransform="translate(-819 -7484.6) rotate(-139.4) scale(9.1 -9.1)" gradientUnits="userSpaceOnUse">
      <stop offset="0" stop-color="#66f5ff"/>
      <stop offset="1" stop-color="#3ba9e3"/>
    </radialGradient>
    <radialGradient id="radial-gradient1" cx="-551.1" cy="550.7" fx="-551.1" fy="550.7" r="1" gradientTransform="translate(31765.1 -19230.8) rotate(-102.1) scale(22.1 -63.7)" gradientUnits="userSpaceOnUse">
      <stop offset="0" stop-color="#f7f6f8"/>
      <stop offset="1" stop-color="#808081"/>
    </radialGradient>
    <radialGradient id="radial-gradient2" cx="-538.4" cy="569.9" fx="-538.4" fy="569.9" r="1" gradientTransform="translate(-21024.2 -24029.4) rotate(154.2) scale(15.8 -54)" gradientUnits="userSpaceOnUse">
      <stop offset=".5" stop-color="#706f70" stop-opacity="0"/>
      <stop offset=".9" stop-color="#706f70"/>
    </radialGradient>
    <radialGradient id="radial-gradient3" cx="-433.7" cy="377" fx="-433.7" fy="377" r="1" gradientTransform="translate(1513.4 864) rotate(-31.7) scale(1.9 -4)" gradientUnits="userSpaceOnUse">
      <stop offset=".2" stop-color="#fff" stop-opacity="0"/>
      <stop offset="1" stop-color="#fff"/>
    </radialGradient>
    <radialGradient id="radial-gradient4" cx="294.1" cy="713.6" fx="294.1" fy="713.6" r="1" gradientTransform="translate(-1182.1 -321.6) rotate(94.1) scale(.8 -1.7)" gradientUnits="userSpaceOnUse">
      <stop offset=".4" stop-color="#473b51"/>
      <stop offset="1" stop-color="#383838"/>
    </radialGradient>
    <radialGradient id="radial-gradient5" cx="73.6" cy="484" fx="73.6" fy="484" r="1" gradientTransform="translate(-637.8 333.1) rotate(56.4) scale(1.2 -1.5)" gradientUnits="userSpaceOnUse">
      <stop offset="0" stop-color="#5a5162"/>
      <stop offset="1" stop-color="#372c40"/>
    </radialGradient>
    <radialGradient id="radial-gradient6" cx="-153.4" cy="490.7" fx="-153.4" fy="490.7" r="1" gradientTransform="translate(-405.5 1058.4) rotate(37.3) scale(2 -2.2)" gradientUnits="userSpaceOnUse">
      <stop offset="0" stop-color="#655771"/>
      <stop offset="1" stop-color="#32273c"/>
    </radialGradient>
    <radialGradient id="radial-gradient7" cx="-288.3" cy="426.6" fx="-288.3" fy="426.6" r="1" gradientTransform="translate(-1159.4 730.7) rotate(94.6) scale(2.8 -2.6)" gradientUnits="userSpaceOnUse">
      <stop offset="0" stop-color="#655771"/>
      <stop offset="1" stop-color="#32273c"/>
    </radialGradient>
    <radialGradient id="radial-gradient8" cx="-234.4" cy="451.7" fx="-234.4" fy="451.7" r="1" gradientTransform="translate(-1092.2 860.7) rotate(76) scale(2.3 -2.8)" gradientUnits="userSpaceOnUse">
      <stop offset="0" stop-color="#6d5a7e"/>
      <stop offset="1" stop-color="#3e2d4c"/>
    </radialGradient>
    <radialGradient id="radial-gradient9" cx="-445.1" cy="130.3" fx="-445.1" fy="130.3" r="1" gradientTransform="translate(556.8 273.5) rotate(3.2) scale(1.2 -1.7)" gradientUnits="userSpaceOnUse">
      <stop offset="0" stop-color="#736282"/>
      <stop offset="1" stop-color="#4b385b"/>
    </radialGradient>
    <radialGradient id="radial-gradient10" cx="-273.5" cy="5.8" fx="-273.5" fy="5.8" r="1" gradientTransform="translate(263.4 44.7) rotate(4.2) scale(.9 -1.3)" gradientUnits="userSpaceOnUse">
      <stop offset="0" stop-color="#746383"/>
      <stop offset="1" stop-color="#564366"/>
    </radialGradient>
    <radialGradient id="radial-gradient11" cx="-572.3" cy="577.5" fx="-572.3" fy="577.5" r="1" gradientTransform="translate(-4671.2 -8173.7) rotate(-146.8) scale(14.7 -7.4)" gradientUnits="userSpaceOnUse">
      <stop offset="0" stop-color="#7b7180"/>
      <stop offset="1" stop-color="#817a86"/>
    </radialGradient>
    <radialGradient id="radial-gradient12" cx="-547.7" cy="572.2" fx="-547.7" fy="572.2" r="1" gradientTransform="translate(-13777 -21124.1) rotate(167.1) scale(15.9 -41.4)" gradientUnits="userSpaceOnUse">
      <stop offset=".6" stop-color="#817a82" stop-opacity="0"/>
      <stop offset="1" stop-color="#817a82"/>
    </radialGradient>
    <radialGradient id="radial-gradient13" cx="-480.3" cy="385.8" fx="-480.3" fy="385.8" r="1" gradientTransform="translate(6786.3 2784.1) rotate(15.8) scale(15.1 -2.1)" gradientUnits="userSpaceOnUse">
      <stop offset="0" stop-color="#b8b2bd"/>
      <stop offset="1" stop-color="#b8b2bd" stop-opacity="0"/>
    </radialGradient>
    <radialGradient id="radial-gradient14" cx="-628.6" cy="505.8" fx="-628.6" fy="505.8" r="1" gradientTransform="translate(6331.4 -1474.2) rotate(-80.2) scale(4.1 -11.8)" gradientUnits="userSpaceOnUse">
      <stop offset="0" stop-color="#9f8a7a"/>
      <stop offset="1" stop-color="#9f8a7a" stop-opacity="0"/>
    </radialGradient>
  </defs>
  <circle class="st5" cx="16.8" cy="14.1" r="6.4"/>
  <path class="st6" d="M5.1,20.3c-1.6-1.3-2.6-2.8-3.2-4.1-.4-.9,0-1.9.8-2.4,2.7-2,6-2.3,8.2-1.9l12.7,3.4c3,.9,4.8,3.4,5.9,5.5.5.9.2,2.1-.7,2.6-1.9,1.2-3.8,1.8-5.6,2-1.2.1-2.4,0-3.6-.4l-10.2-2.7c-1.5-.4-2.9-1.1-4.2-2Z"/>
  <path class="st11" d="M5.1,20.3c-1.6-1.3-2.6-2.8-3.2-4.1-.4-.9,0-1.9.8-2.4,2.7-2,6-2.3,8.2-1.9l12.7,3.4c3,.9,4.8,3.4,5.9,5.5.5.9.2,2.1-.7,2.6-1.9,1.2-3.8,1.8-5.6,2-1.2.1-2.4,0-3.6-.4l-10.2-2.7c-1.5-.4-2.9-1.1-4.2-2Z"/>
  <circle class="st10" cx="20.7" cy="11.1" r="1"/>
  <ellipse class="st13" cx="4.4" cy="13.5" rx="1.3" ry=".4" transform="translate(-5.8 3.7) rotate(-28.1)"/>
  <ellipse class="st12" cx="7.2" cy="14.2" rx="1.3" ry=".7" transform="translate(-4.4 3.3) rotate(-19.7)"/>
  <ellipse class="st7" cx="11.3" cy="15.3" rx="1.3" ry=".8" transform="translate(-.9 .7) rotate(-3.6)"/>
  <ellipse class="st14" cx="16.2" cy="16.6" rx=".9" ry="1.3" transform="translate(-3.7 28.6) rotate(-76.9)"/>
  <ellipse class="st9" cx="21" cy="17.9" rx=".8" ry="1.3" transform="translate(-5.8 24.8) rotate(-54.8)"/>
  <ellipse class="st8" cx="25.1" cy="19" rx=".7" ry="1.3" transform="translate(-6.3 21) rotate(-40.7)"/>
  <ellipse class="st1" cx="27.9" cy="19.8" rx=".4" ry="1.3" transform="translate(-6.2 17.9) rotate(-32.2)"/>
  <path class="st3" d="M1.9,16.1c.6,1.3,1.6,2.8,3.2,4.1,1.2,1,2.6,1.6,4.2,2l10.2,2.7c1.2.3,2.4.5,3.6.4,1.8-.2,3.7-.7,5.6-2,.5-.3.8-.8.9-1.3L1.8,14.7c-.2.4-.2.9,0,1.4Z"/>
  <path class="st0" d="M1.9,16.1c.6,1.3,1.6,2.8,3.2,4.1,1.2,1,2.6,1.6,4.2,2l10.2,2.7c1.2.3,2.4.5,3.6.4,1.8-.2,3.7-.7,5.6-2,.5-.3.8-.8.9-1.3L1.8,14.7c-.2.4-.2.9,0,1.4Z"/>
  <path class="st2" d="M1.9,16.1c.6,1.3,1.6,2.8,3.2,4.1,1.2,1,2.6,1.6,4.2,2l10.2,2.7c1.2.3,2.4.5,3.6.4,1.8-.2,3.7-.7,5.6-2,.5-.3.8-.8.9-1.3L1.8,14.7c-.2.4-.2.9,0,1.4Z"/>
  <path class="st4" d="M1.9,16.1c.6,1.3,1.6,2.8,3.2,4.1,1.2,1,2.6,1.6,4.2,2l10.2,2.7c1.2.3,2.4.5,3.6.4,1.8-.2,3.7-.7,5.6-2,.5-.3.8-.8.9-1.3L1.8,14.7c-.2.4-.2.9,0,1.4Z"/>
</svg>