<svg width="78" height="78" viewBox="0 0 78 78" fill="none" xmlns="http://www.w3.org/2000/svg">
<path d="M18.2932 47.6315C16.3406 45.6789 16.3406 42.5131 18.2932 40.5605L40.2135 18.6402C42.1661 16.6875 45.3319 16.6875 47.2846 18.6402L60.0125 31.3681C61.9651 33.3207 61.9651 36.4865 60.0125 38.4391L38.0922 60.3595C36.1396 62.3121 32.9737 62.3121 31.0211 60.3595L18.2932 47.6315Z" fill="#E2E2E2" stroke="white" stroke-width="6" stroke-linejoin="round"/>
<path d="M19.3538 46.5709C17.987 45.204 17.987 42.988 19.3538 41.6211L41.2742 19.7008C42.641 18.334 44.8571 18.334 46.2239 19.7008L58.9518 32.4287C60.3187 33.7956 60.3187 36.0116 58.9518 37.3785L37.0315 59.2988C35.6647 60.6656 33.4486 60.6656 32.0818 59.2988L19.3538 46.5709Z" fill="#E2E2E2" stroke="black" stroke-width="3" stroke-linejoin="round"/>
<path d="M29.6065 31.3682L41.2738 19.7009C42.6406 18.3341 44.8567 18.3341 46.2235 19.7009L58.9514 32.4289C60.3183 33.7957 60.3183 36.0118 58.9514 37.3786L47.2842 49.0459L29.6065 31.3682Z" fill="#3D89E0" stroke="black" stroke-width="3"/>
<path d="M57.8915 36.318C58.6725 35.537 58.6725 34.2706 57.8915 33.4896L57.1843 32.7825L45.1635 44.8033L47.2848 46.9246L57.8915 36.318Z" fill="#2569B7"/>
<path d="M35.9709 58.2384C35.1898 59.0194 33.9235 59.0194 33.1424 58.2384L20.4145 45.5105C19.6335 44.7294 19.6335 43.4631 20.4145 42.682L21.1216 41.9749L36.678 57.5313L35.9709 58.2384Z" fill="#A9A9A9"/>
<path d="M35.9709 58.2384C35.1898 59.0194 33.9235 59.0194 33.1424 58.2384L32.4353 57.5313L43.0419 46.9247L45.1632 49.046L35.9709 58.2384Z" fill="#A9A9A9"/>
<path d="M21.1221 46.2175L20.415 45.5104C19.6339 44.7294 19.6339 43.463 20.415 42.682L29.6074 33.4896L31.7287 35.6109L21.1221 46.2175Z" fill="white"/>
</svg>
