<svg width="120" height="56" viewBox="0 0 120 56" fill="none" xmlns="http://www.w3.org/2000/svg">
<path d="M39.0851 7.53192C39.0851 7.01036 39.0851 6.74958 38.9231 6.58756C38.7611 6.42553 38.5003 6.42553 37.9787 6.42553H35.2128C34.6983 6.42553 34.4411 6.42553 34.23 6.36898C33.6573 6.21553 33.21 5.76819 33.0565 5.19549C33 4.98444 33 4.72722 33 4.21277C33 3.69831 33 3.44109 33.0565 3.23005C33.21 2.65734 33.6573 2.21 34.23 2.05655C34.4411 2 34.6983 2 35.2128 2H47.383C47.8974 2 48.1547 2 48.3657 2.05655C48.9384 2.21 49.3857 2.65734 49.5392 3.23005C49.5957 3.44109 49.5957 3.69831 49.5957 4.21277C49.5957 4.72722 49.5957 4.98444 49.5392 5.19549C49.3857 5.76819 48.9384 6.21553 48.3657 6.36898C48.1547 6.42553 47.8974 6.42553 47.383 6.42553H44.617C44.0955 6.42553 43.8347 6.42553 43.6727 6.58756C43.5106 6.74958 43.5106 7.01036 43.5106 7.53191V17.4894C43.5106 18.0038 43.5106 18.261 43.4541 18.4721C43.3006 19.0448 42.8533 19.4921 42.2806 19.6456C42.0696 19.7021 41.8123 19.7021 41.2979 19.7021C40.7834 19.7021 40.5262 19.7021 40.3152 19.6456C39.7424 19.4921 39.2951 19.0448 39.1417 18.4721C39.0851 18.261 39.0851 18.0038 39.0851 17.4894V7.53192Z" fill="#007AF3"/>
<path d="M50.1494 4.21276C50.1494 3.69831 50.1494 3.44109 50.206 3.23005C50.3594 2.65734 50.8068 2.21 51.3795 2.05655C51.5905 2 51.8477 2 52.3622 2C52.8766 2 53.1339 2 53.3449 2.05655C53.9176 2.21 54.3649 2.65734 54.5184 3.23005C54.5749 3.44109 54.5749 3.69831 54.5749 4.21277V17.4894C54.5749 18.0038 54.5749 18.261 54.5184 18.4721C54.3649 19.0448 53.9176 19.4921 53.3449 19.6456C53.1339 19.7021 52.8766 19.7021 52.3622 19.7021C51.8477 19.7021 51.5905 19.7021 51.3795 19.6456C50.8068 19.4921 50.3594 19.0448 50.206 18.4721C50.1494 18.261 50.1494 18.0038 50.1494 17.4894V4.21276Z" fill="#007AF3"/>
<path d="M56.2344 4.89672C56.2344 3.73849 56.2344 3.15937 56.5108 2.74249C56.6334 2.55753 56.7919 2.39905 56.9769 2.27641C57.3937 2 57.9729 2 59.1311 2C59.8724 2 60.2431 2 60.5613 2.13932C60.7043 2.20194 60.8378 2.28444 60.9578 2.38438C61.2247 2.60669 61.3905 2.93822 61.722 3.60127L62.9895 6.1362C63.8187 7.79457 64.2333 8.62375 64.6593 8.52316C65.0854 8.42257 65.0854 7.49552 65.0854 5.64141V4.21277C65.0854 3.69831 65.0854 3.44109 65.142 3.23005C65.2954 2.65734 65.7428 2.21 66.3155 2.05655C66.5265 2 66.7838 2 67.2982 2C67.8127 2 68.0699 2 68.2809 2.05655C68.8536 2.21 69.301 2.65734 69.4544 3.23005C69.511 3.44109 69.511 3.69831 69.511 4.21277V16.8054C69.511 17.9636 69.511 18.5428 69.2346 18.9596C69.1119 19.1446 68.9534 19.3031 68.7685 19.4257C68.3516 19.7021 67.7725 19.7021 66.6142 19.7021C65.8729 19.7021 65.5023 19.7021 65.1841 19.5628C65.041 19.5002 64.9075 19.4177 64.7875 19.3177C64.5206 19.0954 64.3549 18.7639 64.0233 18.1009L62.7559 15.5659C61.9267 13.9076 61.5121 13.0784 61.086 13.179C60.6599 13.2796 60.6599 14.2066 60.6599 16.0607V17.4894C60.6599 18.0038 60.6599 18.261 60.6034 18.4721C60.4499 19.0448 60.0026 19.4921 59.4299 19.6456C59.2188 19.7021 58.9616 19.7021 58.4471 19.7021C57.9327 19.7021 57.6755 19.7021 57.4644 19.6456C56.8917 19.4921 56.4444 19.0448 56.2909 18.4721C56.2344 18.261 56.2344 18.0038 56.2344 17.4894V4.89672Z" fill="#007AF3"/>
<path d="M75.5959 16.034C75.5959 15.2502 75.5959 14.8583 75.4624 14.5459C75.3289 14.2335 74.9738 13.8939 74.2637 13.2147C74.0692 13.0287 73.8718 12.8267 73.6749 12.6079C72.1121 10.8715 70.6172 8.14582 70.6172 4.21277C70.6172 3.69831 70.6172 3.44109 70.6737 3.23005C70.8272 2.65734 71.2745 2.21 71.8472 2.05655C72.0583 2 72.3155 2 72.83 2C73.3444 2 73.6016 2 73.8127 2.05655C74.3854 2.21 74.8327 2.65734 74.9862 3.23005C75.0427 3.44109 75.0427 3.69831 75.0427 4.21277C75.0427 6.9179 76.0372 8.61784 76.9638 9.64744C77.0268 9.71752 77.09 9.78465 77.1528 9.84893C77.4348 10.1374 77.5759 10.2817 77.8087 10.2817C78.0415 10.2817 78.1825 10.1374 78.4645 9.84893C78.5274 9.78465 78.5905 9.71752 78.6536 9.64744C79.5802 8.61784 80.5746 6.9179 80.5746 4.21277C80.5746 3.69831 80.5746 3.44109 80.6312 3.23005C80.7846 2.65734 81.232 2.21 81.8047 2.05655C82.0157 2 82.2729 2 82.7874 2C83.3019 2 83.5591 2 83.7701 2.05655C84.3428 2.21 84.7902 2.65734 84.9436 3.23005C85.0002 3.44109 85.0002 3.69831 85.0002 4.21277C85.0002 8.14582 83.5052 10.8715 81.9425 12.6079C81.7455 12.8267 81.5482 13.0287 81.3537 13.2147C80.6435 13.8939 80.2885 14.2335 80.1549 14.5459C80.0214 14.8583 80.0214 15.2502 80.0214 16.034V17.4894C80.0214 18.0038 80.0214 18.261 79.9649 18.4721C79.8114 19.0448 79.3641 19.4921 78.7914 19.6456C78.5804 19.7021 78.3231 19.7021 77.8087 19.7021C77.2942 19.7021 77.037 19.7021 76.826 19.6456C76.2532 19.4921 75.8059 19.0448 75.6525 18.4721C75.5959 18.261 75.5959 18.0038 75.5959 17.4894V16.034Z" fill="#007AF3"/>
<path d="M87.249 22H87C86.07 22 85.605 22 85.2235 22.1022C84.1883 22.3796 83.3796 23.1883 83.1022 24.2235C83 24.605 83 25.07 83 26C83 30.4444 84.0818 36.8033 85.0781 41.7852C85.5714 44.2513 86.2968 47.4087 86.8856 49.8956C87.2953 51.6263 87.5002 52.4917 88.0716 53.0836C88.2563 53.275 88.4709 53.4447 88.6996 53.5803C89.4072 54 90.3053 54 92.1013 54C93.621 54 94.3809 54 95.0144 53.6832C95.2221 53.5793 95.417 53.4517 95.5952 53.3029C96.1389 52.849 96.4428 52.1525 97.0506 50.7596L98.1669 48.2012C98.9525 46.4007 99.3453 45.5005 100 45.5005C100.655 45.5005 101.048 46.4007 101.833 48.2012L101.833 48.2012L102.949 50.7596C103.557 52.1525 103.861 52.849 104.405 53.3029C104.583 53.4517 104.778 53.5793 104.986 53.6832C105.619 54 106.379 54 107.899 54C109.695 54 110.593 54 111.3 53.5803C111.529 53.4447 111.744 53.275 111.928 53.0836C112.5 52.4917 112.705 51.6263 113.114 49.8956C113.703 47.4087 114.429 44.2513 114.922 41.7852C115.918 36.8033 117 30.4444 117 26C117 25.07 117 24.605 116.898 24.2235C116.62 23.1883 115.812 22.3796 114.776 22.1022C114.395 22 113.93 22 113 22H112.751C111.712 22 111.193 22 110.759 22.135C109.94 22.3891 109.27 22.9812 108.916 23.7618C108.728 24.1763 108.664 24.6915 108.535 25.722L108.5 26C108.016 29.869 107.994 32.816 107.094 37.5164C107.041 37.7976 106.794 38 106.507 38C106.214 38 105.964 37.7885 105.916 37.4996L104.242 27.586C104.069 26.5597 103.982 26.0466 103.773 25.6365C103.407 24.9194 102.768 24.3795 102 24.1381C101.561 24 101.041 24 100 24C98.9592 24 98.4389 24 97.9996 24.1381C97.2317 24.3795 96.593 24.9194 96.2271 25.6365C96.0178 26.0466 95.9312 26.5597 95.7579 27.586L94.0845 37.4996C94.0357 37.7885 93.7855 38 93.4925 38C93.2062 38 92.9593 37.7976 92.9055 37.5164C92.0055 32.816 91.9836 29.869 91.5 26L91.4653 25.722L91.4652 25.722C91.3364 24.6915 91.272 24.1763 91.0842 23.7618C90.7305 22.9812 90.0598 22.3891 89.2414 22.135C88.8068 22 88.2875 22 87.249 22Z" fill="#007AF3"/>
<path d="M42 22C45.9414 22 49.1636 23.3382 51.3164 25.9082C53.3638 28.3526 54 31.3856 54 34C54 36.2947 53.5059 38.909 52.001 41.167C51.742 41.5559 51.7486 42.0687 52.0127 42.4541C53.575 44.7338 54 47.4722 54 50V51C54 52.6569 52.6569 54 51 54H49C47.3431 54 46 52.6569 46 51V50C46 47.9188 45.5645 47.1178 45.291 46.8164C45.088 46.5931 44.3893 46 42 46H39C38.4477 46 38 46.4477 38 47V51C38 52.6569 36.6569 54 35 54H33C31.3431 54 30 52.6569 30 51V25C30 23.3431 31.3431 22 33 22H42ZM39 30C38.4477 30 38 30.4477 38 31V37C38 37.5523 38.4477 38 39 38H43C44.6569 38 46 36.6569 46 35V33C46 31.3431 44.6569 30 43 30H39Z" fill="#007AF3"/>
<path d="M69 22C71.1096 22 73.0016 22.1289 74.6094 22.5371C76.2836 22.9622 77.9244 23.762 79.1348 25.2891C80.296 26.7542 80.6819 28.4223 80.8457 29.7793C81.0058 31.1061 81 32.6305 81 34.0469V51C81 52.6569 79.6569 54 78 54H76C74.3432 54 73 52.6568 73 51V47C73 46.4477 72.5523 46 72 46H66C65.4478 46 65 46.4477 65 47V51C65 52.6569 63.6569 54 62 54H60C58.3432 54 57 52.6568 57 51V34.0469C57 32.6191 56.9943 31.0883 57.1543 29.7598C57.3179 28.4018 57.7041 26.7294 58.8711 25.2637C60.0872 23.7366 61.7335 22.9457 63.4024 22.5273C65.0062 22.1253 66.8949 22 69 22ZM68 30C66.3432 30 65 31.3431 65 33V37C65 37.5523 65.4477 38 66 38H72C72.5523 38 73 37.5523 73 37V33C73 31.3431 71.6569 30 70 30H68Z" fill="#007AF3"/>
<path d="M8 22C11.9263 22 15.126 21.9965 17.582 22.2012C19.9362 22.3974 22.4337 22.8258 24.4004 24.3008C26.6109 25.959 27.3866 28.3135 27.707 30.4766C28.0106 32.5261 28 35.1296 28 38C28 40.8705 28.0106 43.474 27.707 45.5234C27.3866 47.6865 26.6109 50.041 24.4004 51.6992C22.4337 53.1742 19.9362 53.6026 17.582 53.7988C15.126 54.0035 11.9263 54 8 54H7C5.34315 54 4 52.6569 4 51V25C4 23.3432 5.34315 22 7 22H8ZM13 30C12.4477 30 12 30.4477 12 31V45C12.0001 45.5522 12.4478 46 13 46H17C18.6568 46 19.9999 44.6568 20 43V33C20 31.3431 18.6569 30 17 30H13Z" fill="#007AF3"/>
<path d="M5 11L6.17477 10.2168C7.26179 9.49214 8.6928 9.55424 9.71296 10.3704L11.1259 11.5007C12.2216 12.3773 13.7784 12.3773 14.8741 11.5007L16.1259 10.4993C17.2216 9.62274 18.7784 9.62274 19.8741 10.4993L21.1259 11.5007C22.2216 12.3773 23.7784 12.3773 24.8741 11.5007L26.0872 10.5302C27.2004 9.63967 28.7866 9.65553 29.8818 10.5682L31 11.5" stroke="#007AF3" stroke-width="2" stroke-linecap="round"/>
<path d="M89 11L90.1748 10.2168C91.2618 9.49214 92.6928 9.55424 93.713 10.3704L95.1259 11.5007C96.2216 12.3773 97.7784 12.3773 98.8741 11.5007L100.126 10.4993C101.222 9.62274 102.778 9.62274 103.874 10.4993L105.126 11.5007C106.222 12.3773 107.778 12.3773 108.874 11.5007L110.087 10.5302C111.2 9.63967 112.787 9.65553 113.882 10.5682L115 11.5" stroke="#007AF3" stroke-width="2" stroke-linecap="round"/>
</svg>
