<svg width="20" height="20" viewBox="0 0 20 20" fill="none" xmlns="http://www.w3.org/2000/svg">
<rect x="1.5" y="2" width="17" height="17" rx="3" stroke="white" stroke-width="2"/>
<mask id="path-2-inside-1_412_1661" fill="white">
<rect x="4.0625" y="12.0833" width="11.875" height="7.91667" rx="1.55556"/>
</mask>
<rect x="4.0625" y="12.0833" width="11.875" height="7.91667" rx="1.55556" stroke="white" stroke-width="4" mask="url(#path-2-inside-1_412_1661)"/>
<path d="M14.3818 1C15.2409 1 15.9375 1.69655 15.9375 2.55566V7.36133C15.9374 8.22034 15.2409 8.91699 14.3818 8.91699H5.61816C4.75913 8.91699 4.06262 8.22034 4.0625 7.36133V2.55566C4.0625 1.69655 4.75905 1 5.61816 1H14.3818ZM12.7705 3.375C12.3334 3.37518 11.9795 3.72988 11.9795 4.16699V6.54199C11.9797 6.97896 12.3335 7.33283 12.7705 7.33301C13.2076 7.33301 13.5623 6.97907 13.5625 6.54199V4.16699C13.5625 3.72977 13.2077 3.375 12.7705 3.375Z" fill="white"/>
</svg>
