<svg width="84" height="84" viewBox="0 0 84 84" fill="none" xmlns="http://www.w3.org/2000/svg">
<path d="M67 43L62.8975 27.86C60.3611 18.4994 51.8662 12 42.1681 12C32.1293 12 23.4297 18.9542 21.2185 28.7464L18 43C36.974 45.9967 47.7388 45.9781 67 43Z" fill="#1C6371" fill-opacity="0.4"/>
<path d="M21.2185 28.7464L18 43L30.5 45C28.5 30.5 31 20 42.1681 12C32.1293 12 23.4297 18.9542 21.2185 28.7464Z" fill="white" fill-opacity="0.3"/>
<path d="M29 46.5C29 41.2533 33.2533 37 38.5 37L45.5 37C50.7467 37 55 41.2533 55 46.5C55 51.7467 50.7467 56 45.5 56H38.5C33.2533 56 29 51.7467 29 46.5Z" fill="#BB406F" stroke="#751C1E" stroke-width="2"/>
<path d="M35 39C36.3333 40.6667 39 44.7 39 47.5" stroke="#751C26" stroke-width="3" stroke-linecap="round"/>
<path d="M49 39C47.6667 40.6667 45 44.7 45 47.5" stroke="#751C26" stroke-width="3" stroke-linecap="round"/>
<path d="M33 29.4118C33 23.8889 35.1724 20 42 20C48.8276 20 51 23.8889 51 29.4118C51 34.0523 45.1713 40 42 40C38.8287 40 33 34.0523 33 29.4118Z" fill="#4DEB9C" stroke="#26BF6B" stroke-width="2"/>
<ellipse cx="38.5" cy="31.5001" rx="2.5" ry="3.5" transform="rotate(-30 38.5 31.5001)" fill="#242630"/>
<ellipse cx="2.5" cy="3.5" rx="2.5" ry="3.5" transform="matrix(-0.866025 -0.5 -0.5 0.866025 49.8301 29.5)" fill="#242630"/>
<path d="M16 58C16 58 16 71 42 71C68 71 68 58 68 58H42H16Z" fill="#6AC4CC" stroke="#5D959A" stroke-width="3" stroke-linejoin="round"/>
<path d="M79 59.4797C79 59.4797 72.1585 42.875 65.125 42.875C61.5452 42.875 52.2778 44.8285 42 44.8285C31.7222 44.8285 23.3564 42.875 19.9028 42.875C12.8693 42.875 5 59.4797 5 59.4797C5 59.4797 25.5556 63.875 42 63.875C58.4444 63.875 79 59.4797 79 59.4797Z" fill="url(#paint0_linear_140_559)" stroke="#A7F0F7" stroke-width="3" stroke-linejoin="round"/>
<circle cx="42" cy="55" r="3" fill="#345C63"/>
<circle cx="31" cy="54" r="3" fill="#345C63"/>
<circle cx="21" cy="52" r="3" fill="#345C63"/>
<circle cx="63" cy="52" r="3" fill="#345C63"/>
<circle cx="53" cy="54" r="3" fill="#345C63"/>
<path d="M42 66C59.4805 66 74.0561 62.7704 79.6009 61.3562C80.8538 61.0366 81.4546 59.6448 80.8635 58.4948C80.4159 57.6239 79.424 57.1813 78.4723 57.4118C73.7357 58.5587 59.1735 61.7059 42 61.7059C24.8265 61.7059 10.2643 58.5587 5.52772 57.4118C4.57603 57.1813 3.58411 57.6239 3.13648 58.4948C2.54537 59.6448 3.14616 61.0366 4.39911 61.3562C9.9439 62.7704 24.5195 66 42 66Z" fill="#042427" stroke="#345C63" stroke-width="2"/>
<circle cx="37" cy="30" r="1" fill="#3396E7"/>
<circle cx="45" cy="30" r="1" fill="#3396E7"/>
<defs>
<linearGradient id="paint0_linear_140_559" x1="44" y1="47" x2="44" y2="64" gradientUnits="userSpaceOnUse">
<stop offset="0.131583" stop-color="#C1F3F8"/>
<stop offset="0.427885" stop-color="#84D9E1"/>
<stop offset="1" stop-color="#34ABB6"/>
</linearGradient>
</defs>
</svg>
