<svg width="84" height="84" viewBox="0 0 84 84" fill="none" xmlns="http://www.w3.org/2000/svg">
<path d="M16 17C16 15.8954 16.8954 15 18 15H65.0008C66.1054 15 67.0008 15.8954 67.0008 17V41.3942C67.0008 41.7892 66.8839 42.1754 66.6647 42.504L65.74 43.8905C65.2919 44.5623 65.2918 45.4377 65.7397 46.1096L66.2604 46.8906C66.7083 47.5624 66.7083 48.4376 66.2604 49.1094L65.7397 49.8904C65.2918 50.5623 65.2919 51.4377 65.74 52.1095L66.2607 52.8903C66.7088 53.5622 66.7088 54.4378 66.2607 55.1097L65.7401 55.8903C65.292 56.5622 65.292 57.4378 65.7401 58.1097L66.6647 59.496C66.8839 59.8246 67.0008 60.2108 67.0008 60.6058V71.5C67.0008 72.6046 66.1054 73.5 65.0008 73.5H18C16.8954 73.5 16 72.6046 16 71.5V60.6056C16 60.2107 16.1169 59.8247 16.3359 59.4962L17.2604 58.1094C17.7083 57.4376 17.7083 56.5624 17.2604 55.8906L16.7396 55.1094C16.2917 54.4376 16.2917 53.5624 16.7396 52.8906L17.2604 52.1094C17.7083 51.4376 17.7083 50.5624 17.2604 49.8906L16.7396 49.1094C16.2917 48.4376 16.2917 47.5624 16.7396 46.8906L17.2604 46.1094C17.7083 45.4376 17.7083 44.5624 17.2604 43.8906L16.3359 42.5038C16.1169 42.1753 16 41.7893 16 41.3944V17Z" fill="url(#paint0_linear_139_421)" stroke="#8AA4AD" stroke-width="3"/>
<path d="M19 57L64 57" stroke="#839BA4" stroke-width="3"/>
<path d="M19 51L64 51" stroke="#839BA4" stroke-width="3"/>
<path d="M19 45L64 45" stroke="#839BA4" stroke-width="3"/>
<circle cx="5" cy="5" r="3.5" transform="matrix(-1 0 0 1 47 26)" stroke="black" stroke-width="3"/>
<path d="M40.4417 28.1912C39.0985 28.9626 38.6459 30.6838 39.436 32.0161L50.1718 50.1215C52.7922 54.5405 57.5488 57.25 62.6862 57.25H68.2344C69.7618 57.25 71 56.0118 71 54.4844C71 52.957 69.7618 51.7188 68.2344 51.7188H64.2863C60.1407 51.7188 56.302 49.5341 54.1849 45.9698L44.2127 29.1812C43.4375 27.8761 41.758 27.4352 40.4417 28.1912Z" fill="white" stroke="#456571" stroke-width="3"/>
<path d="M64 21H31V30.5C31 31.3284 30.3284 32 29.5 32C28.6716 32 28 31.3284 28 30.5V21H26V25.5C26 26.3284 25.3284 27 24.5 27C23.6716 27 23 26.3284 23 25.5V21H19V18H64V21Z" fill="#13BE2A"/>
<path d="M64 21V22.5H65.5V21H64ZM31 21V19.5H29.5V21H31ZM31 30.5H32.5V30.5H31ZM28 30.5H26.5H28ZM28 21H29.5V19.5H28V21ZM26 21V19.5H24.5V21H26ZM23 21H24.5V19.5H23V21ZM19 21H17.5V22.5H19V21ZM19 18V16.5H17.5V18H19ZM64 18H65.5V16.5H64V18ZM64 21V19.5H31V21V22.5H64V21ZM31 21H29.5V30.5H31H32.5V21H31ZM31 30.5H29.5V30.5V32V33.5C31.1569 33.5 32.5 32.1569 32.5 30.5H31ZM29.5 32V30.5V30.5H28H26.5C26.5 32.1569 27.8431 33.5 29.5 33.5V32ZM28 30.5H29.5V21H28H26.5V30.5H28ZM28 21V19.5H26V21V22.5H28V21ZM26 21H24.5V25.5H26H27.5V21H26ZM26 25.5H24.5V27V28.5C26.1569 28.5 27.5 27.1569 27.5 25.5H26ZM24.5 27V25.5H23H21.5C21.5 27.1569 22.8431 28.5 24.5 28.5V27ZM23 25.5H24.5V21H23H21.5V25.5H23ZM23 21V19.5H19V21V22.5H23V21ZM19 21H20.5V18H19H17.5V21H19ZM19 18V19.5H64V18V16.5H19V18ZM64 18H62.5V21H64H65.5V18H64Z" fill="#13BE2A"/>
<defs>
<linearGradient id="paint0_linear_139_421" x1="63.6008" y1="44.25" x2="19.4001" y2="44.25" gradientUnits="userSpaceOnUse">
<stop stop-color="#AEC0C7"/>
<stop offset="0.14547" stop-color="#E1EEF4"/>
<stop offset="0.511975" stop-color="white"/>
<stop offset="0.84697" stop-color="white"/>
<stop offset="1" stop-color="#AEC0C7"/>
</linearGradient>
</defs>
</svg>
