<svg width="84" height="84" viewBox="0 0 84 84" fill="none" xmlns="http://www.w3.org/2000/svg">
<g clip-path="url(#clip0_139_521)">
<path d="M29.1986 29.2517C28.3317 27.4866 33.3298 23.2557 40.3622 19.8019C47.3946 16.348 53.7982 14.979 54.6652 16.7441L76.3004 60.7954C77.1674 62.5605 72.1693 66.7913 65.1369 70.2452C58.1045 73.6991 51.7008 75.0681 50.8339 73.303L29.1986 29.2517Z" fill="url(#paint0_linear_139_521)" stroke="#651111" stroke-width="3"/>
<path d="M54.1171 18.1013C54.9558 19.8091 50.3734 23.778 43.882 26.9662C37.3905 30.1544 31.4482 31.3546 30.6095 29.6468C29.7708 27.9391 34.3532 23.9701 40.8446 20.7819C47.3361 17.5937 53.2783 16.3936 54.1171 18.1013Z" fill="#F06767"/>
<path d="M51.0418 19.2671C51.5395 20.2806 47.9963 23.0406 43.1277 25.4318C38.2591 27.8229 33.9089 28.9397 33.4111 27.9262C32.9133 26.9127 36.4565 24.1527 41.3251 21.7615C46.1937 19.3704 50.544 18.2536 51.0418 19.2671Z" fill="#FFD07F"/>
<path d="M42.5275 24.2096L39.0386 17.1058C36.8474 12.6443 31.4543 10.8039 26.9927 12.9951L26.4162 13.2783C21.459 15.713 19.414 21.7053 21.8487 26.6626L25.3384 33.7679C26.5558 36.2465 25.5333 39.2427 23.0547 40.46L22.2357 40.8623C19.7571 42.0796 16.761 41.0571 15.5436 38.5785L13.8993 35.2306" stroke="black" stroke-width="3"/>
<path d="M14.4254 28.0209C15.0395 27.2717 16.2535 27.7461 16.197 28.7132L15.9796 32.4345C15.9544 32.867 16.2105 33.2666 16.614 33.4242L20.086 34.781C20.9883 35.1335 20.9123 36.4347 19.9751 36.6798L16.3687 37.623C15.9496 37.7327 15.6487 38.0997 15.6234 38.5322L15.406 42.2535C15.3495 43.2206 14.0885 43.5504 13.5658 42.7348L11.5543 39.5964C11.3206 39.2317 10.8785 39.0589 10.4594 39.1685L6.853 40.1117C5.9158 40.3569 5.21247 39.2595 5.82661 38.5103L8.18983 35.6275C8.46448 35.2924 8.49216 34.8186 8.25839 34.4539L6.24692 31.3155C5.72419 30.4999 6.5505 29.4919 7.45279 29.8445L10.9248 31.2012C11.3283 31.3589 11.7875 31.2388 12.0621 30.9037L14.4254 28.0209Z" fill="#FFE83C" stroke="#C43838" stroke-width="2"/>
</g>
<defs>
<linearGradient id="paint0_linear_139_521" x1="41.795" y1="50.0907" x2="65.4945" y2="38.7874" gradientUnits="userSpaceOnUse">
<stop stop-color="#76122D"/>
<stop offset="0.237449" stop-color="#C43838"/>
<stop offset="0.513074" stop-color="#F27575"/>
<stop offset="0.732307" stop-color="#F27575"/>
<stop offset="1" stop-color="#76122D"/>
</linearGradient>
<clipPath id="clip0_139_521">
<rect width="84" height="84" fill="white"/>
</clipPath>
</defs>
</svg>
