<svg width="84" height="84" viewBox="0 0 84 84" fill="none" xmlns="http://www.w3.org/2000/svg">
<path d="M24.4184 42.5709L30.5 49L33.9268 52.2922C39.7496 57.8862 41.7371 66.382 39 73.9785H44.1224L48.703 66.4716C50.5562 63.4345 50.4736 59.5969 48.4913 56.6424C45.6673 52.4331 46.8183 46.7287 51.0536 43.9439L62.1182 36.6687C68.018 32.7895 71.7249 26.3388 72.106 19.2882L72.4228 13.4276C72.4647 12.6519 71.8471 12 71.0703 12H42.25H13.9111C12.8727 12 12.0471 12.8715 12.1031 13.9083C12.6822 24.62 17.0466 34.7779 24.4184 42.5709Z" fill="url(#paint0_radial_140_631)"/>
<path d="M30.5 49L29.4103 50.0308C29.4267 50.0482 29.4436 50.0651 29.4608 50.0817L30.5 49ZM24.4184 42.5709L23.3287 43.6017L24.4184 42.5709ZM72.4228 13.4276L73.9206 13.5085V13.5085L72.4228 13.4276ZM72.106 19.2882L73.6038 19.3692V19.3692L72.106 19.2882ZM62.1182 36.6687L61.2941 35.4154V35.4154L62.1182 36.6687ZM51.0536 43.9439L50.2295 42.6905V42.6905L51.0536 43.9439ZM44.1224 73.9785V75.4785H44.9643L45.4029 74.7598L44.1224 73.9785ZM39 73.9785L37.5888 73.47C37.4232 73.9296 37.4918 74.4411 37.7727 74.8408C38.0535 75.2405 38.5115 75.4785 39 75.4785V73.9785ZM33.9268 52.2922L34.966 51.2105L34.966 51.2105L33.9268 52.2922ZM48.703 66.4716L49.9835 67.2529V67.2529L48.703 66.4716ZM48.4913 56.6424L49.737 55.8067H49.737L48.4913 56.6424ZM12.1031 13.9083L13.601 13.8273L12.1031 13.9083ZM30.5 49L31.5897 47.9692L25.5081 41.5401L24.4184 42.5709L23.3287 43.6017L29.4103 50.0308L30.5 49ZM72.4228 13.4276L70.925 13.3466L70.6082 19.2073L72.106 19.2882L73.6038 19.3692L73.9206 13.5085L72.4228 13.4276ZM62.1182 36.6687L61.2941 35.4154L50.2295 42.6905L51.0536 43.9439L51.8777 45.1972L62.9423 37.922L62.1182 36.6687ZM13.9111 12V13.5H42.25V12V10.5H13.9111V12ZM42.25 12V13.5H71.0703V12V10.5H42.25V12ZM44.1224 73.9785V72.4785H39V73.9785V75.4785H44.1224V73.9785ZM33.9268 52.2922L34.966 51.2105L31.5392 47.9183L30.5 49L29.4608 50.0817L32.8876 53.3739L33.9268 52.2922ZM48.703 66.4716L47.4226 65.6903L42.842 73.1971L44.1224 73.9785L45.4029 74.7598L49.9835 67.2529L48.703 66.4716ZM48.4913 56.6424L47.2457 57.4781C48.9018 59.9465 48.9709 63.1528 47.4226 65.6903L48.703 66.4716L49.9835 67.2529C52.1415 63.7162 52.0453 59.2472 49.737 55.8067L48.4913 56.6424ZM39 73.9785L40.4112 74.4869C43.349 66.3334 41.2158 57.2147 34.966 51.2105L33.9268 52.2922L32.8876 53.3739C38.2835 58.5577 40.1252 66.4305 37.5888 73.47L39 73.9785ZM51.0536 43.9439L50.2295 42.6905C45.2975 45.9334 43.9571 52.5764 47.2457 57.4781L48.4913 56.6424L49.737 55.8067C47.3775 52.2899 48.3392 47.5239 51.8777 45.1972L51.0536 43.9439ZM72.106 19.2882L70.6082 19.2073C70.2528 25.7823 66.796 31.7978 61.2941 35.4154L62.1182 36.6687L62.9423 37.922C69.2401 33.7811 73.197 26.8954 73.6038 19.3692L72.106 19.2882ZM72.4228 13.4276L73.9206 13.5085C74.009 11.8739 72.7074 10.5 71.0703 10.5V12V13.5C70.9869 13.5 70.9205 13.4299 70.925 13.3466L72.4228 13.4276ZM24.4184 42.5709L25.5081 41.5401C18.3806 34.0053 14.1608 24.184 13.601 13.8273L12.1031 13.9083L10.6053 13.9893C11.2035 25.0559 15.7126 35.5504 23.3287 43.6017L24.4184 42.5709ZM12.1031 13.9083L13.601 13.8273C13.5913 13.6495 13.733 13.5 13.9111 13.5V12V10.5C12.0125 10.5 10.5029 12.0934 10.6053 13.9893L12.1031 13.9083Z" fill="#9C9C9C"/>
<path d="M58.0455 26.6162L69.5709 24.3751C70.3735 24.2191 71.0139 25.0396 70.6677 25.7802L68.5721 30.2624C68.3713 30.6919 67.8964 30.9214 67.4351 30.8117L58.0052 28.5707C56.9582 28.3219 56.9892 26.8216 58.0455 26.6162Z" fill="#9C9C9C"/>
<path d="M39.5873 23.694L14.9836 22.0963C14.2751 22.0503 13.7456 22.7368 13.9702 23.4105L15.2483 27.2448C15.3956 27.6868 15.8286 27.9685 16.2924 27.924L39.618 25.6873C40.8428 25.5699 40.8152 23.7737 39.5873 23.694Z" fill="#9C9C9C"/>
<path d="M28.6717 38.612L21.0257 37.3376C20.2033 37.2005 19.5841 38.0709 19.9834 38.8029L21.3736 41.3515C21.5838 41.737 22.0209 41.9402 22.4511 41.8526L28.7069 40.5782C29.7937 40.3568 29.7658 38.7943 28.6717 38.612Z" fill="#9C9C9C"/>
<path d="M40.3283 46.612L47.9743 45.3376C48.7967 45.2005 49.4159 46.0709 49.0166 46.8029L47.6264 49.3515C47.4162 49.737 46.9791 49.9402 46.5489 49.8526L40.2931 48.5782C39.2063 48.3568 39.2342 46.7943 40.3283 46.612Z" fill="#9C9C9C"/>
<defs>
<radialGradient id="paint0_radial_140_631" cx="0" cy="0" r="1" gradientUnits="userSpaceOnUse" gradientTransform="translate(41 17.5) rotate(95.4403) scale(52.7376 44.7604)">
<stop offset="0.1875" stop-color="#F7F7F7"/>
<stop offset="1" stop-color="#A1A1A1"/>
</radialGradient>
</defs>
</svg>
