<svg width="84" height="84" viewBox="0 0 84 84" fill="none" xmlns="http://www.w3.org/2000/svg">
<rect x="8" y="40" width="70" height="14" rx="7" fill="#FFC155" stroke="#B56520" stroke-width="3"/>
<path d="M14 39.0588C14 29.5687 19.5333 8 43 8C66.4667 8 72 29.5687 72 39.0588C72 54.3725 66.3 74 43 74C19.7 74 14 54.3725 14 39.0588Z" fill="url(#paint0_linear_139_404)" stroke="#B56520" stroke-width="3"/>
<rect x="25" y="51" width="36" height="11" rx="5.5" fill="black"/>
<path d="M30 51H55V53.6452C55 54.3934 54.3934 55 53.6452 55H31.3548C30.6066 55 30 54.3934 30 53.6452V51Z" fill="white"/>
<path d="M30 59.3548C30 58.6066 30.6066 58 31.3548 58H53.6452C54.3934 58 55 58.6066 55 59.3548V62H30V59.3548Z" fill="white"/>
<rect x="30" y="51" width="25" height="1" fill="#C6C6C6"/>
<rect x="30" y="61" width="25" height="1" fill="#C6C6C6"/>
<path d="M40 39.5C40 45.9094 35.9706 48 31 48C26.0294 48 22 45.9094 22 39.5C22 33.0906 26.0294 29 31 29C35.9706 29 40 33.0906 40 39.5Z" fill="white"/>
<path d="M64 39.5C64 45.9094 59.9706 48 55 48C50.0294 48 46 45.9094 46 39.5C46 33.0906 50.0294 29 55 29C59.9706 29 64 33.0906 64 39.5Z" fill="white"/>
<circle cx="34" cy="40" r="5" fill="black"/>
<circle cx="52" cy="40" r="5" fill="black"/>
<defs>
<linearGradient id="paint0_linear_139_404" x1="72" y1="41" x2="14" y2="41" gradientUnits="userSpaceOnUse">
<stop stop-color="#FA892D"/>
<stop offset="0.208071" stop-color="#FFCA59"/>
<stop offset="0.732564" stop-color="#FFCA59"/>
<stop offset="1" stop-color="#FA892D"/>
</linearGradient>
</defs>
</svg>
