<svg width="78" height="78" viewBox="0 0 78 78" fill="none" xmlns="http://www.w3.org/2000/svg">
<path d="M39 13.4048C51.9448 13.4048 62.5 23.6609 62.5 36.3872C62.5 42.8446 58.6662 49.8641 54.0283 55.1772C51.6865 57.86 49.0761 60.1836 46.5166 61.8481C43.9951 63.488 41.3586 64.5952 39 64.5952C36.6414 64.5952 34.0049 63.488 31.4834 61.8481C28.9239 60.1836 26.3135 57.86 23.9717 55.1772C19.3338 49.8641 15.5 42.8446 15.5 36.3872C15.5 23.6609 26.0552 13.4048 39 13.4048Z" fill="#2DBB74" stroke="white" stroke-width="3"/>
<path d="M53.6667 35.327C53.6667 44.8702 44.1532 56.8095 39 56.8095C33.8468 56.8095 24.3333 44.8702 24.3333 35.327C24.3333 25.7839 30.8998 18.0476 39 18.0476C47.1002 18.0476 53.6667 25.7839 53.6667 35.327Z" fill="#4DEB9C"/>
<path d="M39 16.4048C50.3557 16.4048 59.5 25.3847 59.5 36.3872C59.5 41.7942 56.1982 48.1289 51.7686 53.2036C49.5768 55.7146 47.1708 57.8442 44.8809 59.3335C42.5527 60.8476 40.5062 61.5952 39 61.5952C37.4938 61.5952 35.4473 60.8476 33.1191 59.3335C30.8292 57.8442 28.4232 55.7146 26.2314 53.2036C21.8018 48.1289 18.5 41.7942 18.5 36.3872C18.5 25.3847 27.6443 16.4048 39 16.4048Z" stroke="#23303C" stroke-width="3"/>
<path d="M26.0328 33.7427C26.8287 33.2954 28.0599 33.2943 29.6009 34.1113C31.1178 34.9156 32.7089 36.4184 33.9267 38.4723C35.1445 40.5261 35.6856 42.6193 35.6426 44.3005C35.5987 46.0082 34.9817 47.0453 34.1859 47.4926C33.3901 47.9399 32.1591 47.9418 30.6184 47.1249C29.1015 46.3206 27.5103 44.8177 26.2925 42.7639C25.0747 40.7101 24.5336 38.6169 24.5767 36.9357C24.6204 35.2279 25.2371 34.1902 26.0328 33.7427Z" fill="white" stroke="#23303C" stroke-width="3"/>
<path d="M51.9677 33.7427C51.1719 33.2954 49.9407 33.2943 48.3997 34.1113C46.8828 34.9156 45.2917 36.4184 44.0739 38.4723C42.8561 40.5261 42.3149 42.6193 42.358 44.3005C42.4019 46.0082 43.0189 47.0453 43.8147 47.4926C44.6105 47.9399 45.8414 47.9418 47.3822 47.1249C48.899 46.3206 50.4902 44.8177 51.7081 42.7639C52.9259 40.7101 53.4669 38.6169 53.4239 36.9357C53.3801 35.2279 52.7635 34.1902 51.9677 33.7427Z" fill="white" stroke="#23303C" stroke-width="3"/>
<path d="M35.8571 52.619C35.8571 52.619 36.4857 54.7143 39 54.7143C41.5143 54.7143 42.1429 52.619 42.1429 52.619" stroke="#23303C" stroke-width="3" stroke-linecap="round"/>
</svg>
