<svg width="78" height="78" viewBox="0 0 78 78" fill="none" xmlns="http://www.w3.org/2000/svg">
<circle cx="46.9999" cy="30.9999" r="14.9999" fill="#4DBBFF" stroke="white" stroke-width="6"/>
<circle cx="25.5" cy="46.5" r="9.5" fill="#4DBBFF" stroke="white" stroke-width="6"/>
<circle cx="42" cy="55" r="7" fill="#4DBBFF" stroke="white" stroke-width="6"/>
<circle cx="46.9999" cy="30.9999" r="13.4999" fill="#4DBBFF" stroke="#23303C" stroke-width="3"/>
<circle cx="46.9999" cy="30.9999" r="11.9999" fill="#4DBBFF"/>
<path fill-rule="evenodd" clip-rule="evenodd" d="M54.3751 26.9743C53.7389 25.8115 53.7003 24.3005 54.6375 23.3633L55.4861 22.5148C60.1723 27.201 60.1723 34.799 55.4861 39.4852C50.7998 44.1715 43.2019 44.1715 38.5156 39.4852L39.3641 38.6367C40.3014 37.6995 41.8123 37.7381 42.9751 38.3742C44.1705 39.0282 45.5422 39.3999 47.0008 39.3999C51.64 39.3999 55.4008 35.6392 55.4008 31C55.4008 29.5414 55.029 28.1697 54.3751 26.9743Z" fill="#2B95FF"/>
<path d="M40.21 28.6C40.933 26.5542 42.5545 24.9328 44.6002 24.2097" stroke="#E3F1FF" stroke-width="3" stroke-linecap="round"/>
<circle cx="25.5" cy="46.5" r="8" fill="#4DBBFF" stroke="#23303C" stroke-width="3"/>
<path d="M23.3333 45.4167C23.5118 44.9119 23.9119 44.5118 24.4167 44.3334" stroke="#E3F1FF" stroke-width="3" stroke-linecap="round"/>
<circle cx="42" cy="55" r="5.5" fill="#4DBBFF" stroke="#23303C" stroke-width="3"/>
<path d="M41 54.5C41.1647 54.034 41.534 53.6647 42 53.5" stroke="#E3F1FF" stroke-width="3" stroke-linecap="round"/>
</svg>
