<svg width="78" height="78" viewBox="0 0 78 78" fill="none" xmlns="http://www.w3.org/2000/svg">
<path d="M34.3008 20C37.3505 20.0002 39.278 23.2764 37.7969 25.9424L36.0986 29H49.4199C50.7654 29.0001 52.0143 29.6759 52.752 30.7871L52.8926 31.0156L60.248 43.8877C61.0999 45.3784 60.9053 47.247 59.7646 48.5303L52.541 56.6572C51.782 57.5112 50.6933 58 49.5508 58H41.6992C38.6495 57.9998 36.722 54.7236 38.2031 52.0576L39.9014 49H26.5801C25.1447 48.9999 23.8196 48.2306 23.1074 46.9844L15.752 34.1123C14.9001 32.6216 15.0947 30.753 16.2354 29.4697L23.459 21.3428C24.2181 20.4888 25.3067 20 26.4492 20H34.3008Z" stroke="white" stroke-width="6" stroke-linejoin="round"/>
<path d="M18 32L26 23L31 32H18Z" fill="#4DEB9C"/>
<path d="M40 55L45 46L50 55H40Z" fill="#4DEB9C"/>
<path d="M26 23L31 32L36 23H26Z" fill="#4DEB9C"/>
<path d="M26 46L34.0001 32L42 46H26Z" fill="#4DEB9C"/>
<path d="M42 46L50.0001 32L58 46H42Z" fill="#4DEB9C"/>
<path d="M34 32L42.0001 46L50 32H34Z" fill="#4DEB9C"/>
<path d="M18 32L26.0001 46L34 32H18Z" fill="#4DEB9C"/>
<path d="M45 46L50 55L58 46H45Z" fill="#4DEB9C"/>
<path d="M26 23L31 32" stroke="#23303C" stroke-width="3" stroke-linejoin="round"/>
<path d="M42.0001 46L34 32" stroke="#079B40" stroke-width="3" stroke-linejoin="round"/>
<path d="M26 23L31 32L36 23H26ZM34.0001 32L26 46L18 32L26 23M18 32H49.5" stroke="#079B40" stroke-width="3" stroke-linejoin="round"/>
<path d="M25 46H58M50 55L58 46L50.0001 32L42 46M50 55L45 46L40 55H50Z" stroke="#079B40" stroke-width="3" stroke-linejoin="round"/>
<path d="M34.3008 21.5C36.2067 21.5002 37.4116 23.5477 36.4863 25.2139L33.5498 30.5H49.4199C50.2608 30.5001 51.0409 30.9227 51.502 31.6172L51.5898 31.7598L58.9463 44.6318C59.4787 45.5635 59.3565 46.7312 58.6436 47.5332L51.4199 55.6611C50.9455 56.1948 50.2649 56.5 49.5508 56.5H41.6992C39.7933 56.4998 38.5884 54.4523 39.5137 52.7861L42.4502 47.5H26.5801C25.6831 47.4999 24.8552 47.019 24.4102 46.2402L17.0537 33.3682C16.5213 32.4365 16.6435 31.2688 17.3564 30.4668L24.5801 22.3389L24.7676 22.1494C25.2253 21.7335 25.8244 21.5 26.4492 21.5H34.3008Z" stroke="#23303C" stroke-width="3" stroke-linejoin="round"/>
</svg>
