<svg width="78" height="78" viewBox="0 0 78 78" fill="none" xmlns="http://www.w3.org/2000/svg">
<path d="M17.4366 29.4142C18.3243 28.5265 19.6707 28.2855 20.8113 28.81L23.0928 29.8596L25.3757 28.81C26.5162 28.2855 27.8627 28.5265 28.7503 29.4142C29.638 30.3018 29.879 31.6483 29.3546 32.7888L28.3043 35.071L29.3546 37.3533C29.879 38.4938 29.638 39.8403 28.7503 40.7279C27.8627 41.6155 26.5162 41.8566 25.3757 41.3321L23.0928 40.2825L20.8113 41.3321C19.6707 41.8566 18.3243 41.6155 17.4366 40.7279C16.549 39.8403 16.308 38.4938 16.8324 37.3533L17.8813 35.071L16.8324 32.7888L16.7433 32.5727C16.3409 31.4817 16.6044 30.2464 17.4366 29.4142Z" fill="#FFD900" stroke="white" stroke-width="6" stroke-linejoin="round"/>
<path d="M39.5147 30.9167C37.0225 27.0003 36.0225 23.402 30.5225 23.4022C27.0225 23.4023 23.0225 25.5004 23.0229 30.0004" stroke="white" stroke-width="9" stroke-linecap="round"/>
<path d="M36.8842 26.8127C39.0517 25.5612 41.1927 24.7405 43.0488 24.4511C43.967 24.308 44.9712 24.2701 45.9321 24.488C46.8939 24.7062 48.1143 25.2639 48.8524 26.5423L62.6024 50.358C63.5152 51.9389 63.1183 53.5374 62.7026 54.4826C62.2757 55.4529 61.5988 56.3142 60.9563 57.003C59.6488 58.4047 57.8919 59.7172 56.3842 60.5877C54.8765 61.4581 52.8614 62.3234 50.9937 62.7549C50.0759 62.967 48.9915 63.1225 47.9378 63.007C46.9113 62.8945 45.3286 62.4389 44.4159 60.858L30.6659 37.0423L30.5373 36.802C29.9442 35.5985 30.0733 34.3692 30.347 33.4861C30.6387 32.545 31.1736 31.6942 31.7566 30.9706C32.9353 29.5079 34.7166 28.0641 36.8842 26.8127Z" fill="#DF4848" stroke="white" stroke-width="6"/>
<rect x="32.889" y="34.8928" width="5" height="31" transform="rotate(-30 32.889 34.8928)" fill="#C43838"/>
<path d="M33.5229 37.9909C32.6945 36.556 33.1861 34.7212 34.621 33.8928L35.4871 33.3928L50.9871 60.2396L50.121 60.7396C48.6861 61.568 46.8514 61.0764 46.0229 59.6415L33.5229 37.9909Z" fill="#911A1A"/>
<path d="M37.6342 28.1117C39.6922 26.9235 41.6563 26.1858 43.2795 25.9327C44.0861 25.8069 44.8863 25.7885 45.6003 25.9504C46.3148 26.1125 47.0943 26.4972 47.5534 27.2923L61.3034 51.108C61.8744 52.097 61.6543 53.1408 61.3293 53.8795C60.9988 54.6305 60.4479 55.3488 59.8593 55.9798C58.6706 57.2542 57.0375 58.4784 55.6342 59.2886C54.2308 60.0989 52.3541 60.901 50.6561 61.2933C49.8153 61.4876 48.9177 61.6055 48.1021 61.5162C47.3 61.4283 46.2859 61.097 45.7149 60.108L31.9649 36.2923L31.8851 36.1423C31.5138 35.3893 31.5761 34.586 31.7794 33.9299C31.9962 33.2306 32.4122 32.5469 32.9244 31.9112C33.9552 30.632 35.5761 29.3 37.6342 28.1117Z" stroke="#23303C" stroke-width="3"/>
<path d="M46.1294 27.8258C46.8197 29.0216 44.4714 31.6698 40.8842 33.7409C37.297 35.812 33.8293 36.5216 33.139 35.3258C32.4486 34.1301 34.797 31.4818 38.3842 29.4108C41.9714 27.3397 45.439 26.6301 46.1294 27.8258Z" fill="#FFC005"/>
<path d="M39.5148 30.9165C37.0227 27.0002 36.0226 23.4019 30.5226 23.4021C27.0226 23.4022 23.0226 25.5002 23.023 30.0003" stroke="#23303C" stroke-width="3" stroke-linecap="round"/>
<path d="M18.4973 30.4749C18.9412 30.031 19.6147 29.9102 20.185 30.1724L23.0928 31.51L26.0021 30.1724C26.5723 29.9102 27.2459 30.031 27.6897 30.4749C28.1335 30.9187 28.2544 31.5923 27.9922 32.1625L26.6539 35.071L27.9922 37.9796C28.2544 38.5498 28.1335 39.2234 27.6897 39.6672C27.2459 40.1111 26.5723 40.2319 26.0021 39.9697L23.0928 38.6321L20.185 39.9697C19.6147 40.2319 18.9412 40.1111 18.4973 39.6672C18.0535 39.2234 17.9327 38.5498 18.1949 37.9796L19.5318 35.071L18.1949 32.1625C17.9327 31.5923 18.0535 30.9187 18.4973 30.4749Z" fill="#FFC005" stroke="#23303C" stroke-width="3" stroke-linejoin="round"/>
</svg>
