<svg width="78" height="78" viewBox="0 0 78 78" fill="none" xmlns="http://www.w3.org/2000/svg">
<path d="M17.4367 29.4142C18.3243 28.5265 19.6708 28.2855 20.8113 28.81L23.0928 29.8596L25.3757 28.81C26.5163 28.2855 27.8627 28.5265 28.7504 29.4142C29.638 30.3018 29.879 31.6483 29.3546 32.7888L28.3043 35.071L29.3546 37.3533C29.879 38.4938 29.638 39.8403 28.7504 40.7279C27.8627 41.6155 26.5163 41.8566 25.3757 41.3321L23.0928 40.2825L20.8113 41.3321C19.6708 41.8566 18.3243 41.6155 17.4367 40.7279C16.549 39.8403 16.308 38.4938 16.8325 37.3533L17.8814 35.071L16.8325 32.7888L16.7434 32.5727C16.3409 31.4817 16.6045 30.2464 17.4367 29.4142Z" fill="#FFD900" stroke="white" stroke-width="6" stroke-linejoin="round"/>
<path d="M39.515 30.9167C37.0229 27.0003 36.0229 23.402 30.5229 23.4022C27.0229 23.4023 23.0228 25.5004 23.0233 30.0004" stroke="white" stroke-width="9" stroke-linecap="round"/>
<path d="M36.8839 26.8127C39.0514 25.5612 41.1924 24.7405 43.0485 24.4511C43.9667 24.308 44.9709 24.2701 45.9318 24.488C46.8936 24.7062 48.114 25.2639 48.8521 26.5423L62.6021 50.358C63.5148 51.9389 63.118 53.5374 62.7023 54.4826C62.2754 55.4529 61.5985 56.3142 60.956 57.003C59.6485 58.4047 57.8915 59.7172 56.3839 60.5877C54.8762 61.4581 52.8611 62.3234 50.9933 62.7549C50.0756 62.967 48.9912 63.1225 47.9375 63.007C46.911 62.8945 45.3283 62.4389 44.4156 60.858L30.6656 37.0423C29.9275 35.7639 30.0547 34.4282 30.3467 33.4861C30.6384 32.545 31.1733 31.6942 31.7563 30.9706C32.935 29.5079 34.7163 28.0641 36.8839 26.8127Z" fill="#DF4848" stroke="white" stroke-width="6"/>
<rect x="32.8887" y="34.8928" width="5" height="31" transform="rotate(-30 32.8887 34.8928)" fill="#C43838"/>
<path d="M33.5234 37.9909C32.695 36.556 33.1866 34.7212 34.6215 33.8928L35.4875 33.3928L50.9875 60.2396L50.1215 60.7396C48.6866 61.568 46.8519 61.0764 46.0234 59.6415L33.5234 37.9909Z" fill="#911A1A"/>
<path d="M37.6339 28.1117C39.6919 26.9235 41.656 26.1858 43.2792 25.9327C44.0858 25.8069 44.8859 25.7885 45.6 25.9504C46.3145 26.1125 47.094 26.4972 47.5531 27.2923L61.3031 51.108C61.8741 52.097 61.6539 53.1408 61.329 53.8795C60.9985 54.6305 60.4476 55.3488 59.859 55.9798C58.6703 57.2542 57.0372 58.4784 55.6339 59.2886C54.2305 60.0989 52.3538 60.901 50.6558 61.2933C49.815 61.4876 48.9174 61.6055 48.1018 61.5162C47.2997 61.4283 46.2856 61.097 45.7146 60.108L31.9646 36.2923C31.5056 35.4972 31.5622 34.6297 31.7791 33.9299C31.9959 33.2306 32.4119 32.5469 32.9241 31.9112C33.9549 30.632 35.5758 29.3 37.6339 28.1117Z" stroke="black" stroke-width="3"/>
<path d="M46.1291 27.8258C46.8194 29.0216 44.4711 31.6698 40.8839 33.7409C37.2967 35.812 33.829 36.5216 33.1387 35.3258C32.4483 34.1301 34.7967 31.4818 38.3839 29.4108C41.9711 27.3397 45.4387 26.6301 46.1291 27.8258Z" fill="#F06767"/>
<path d="M39.515 30.9165C37.0229 27.0002 36.0229 23.4019 30.5229 23.4021C27.0229 23.4022 23.0228 25.5002 23.0233 30.0003" stroke="black" stroke-width="3" stroke-linecap="round"/>
<path d="M18.4973 30.4749C18.9412 30.031 19.6147 29.9102 20.185 30.1724L23.0928 31.51L26.0021 30.1724C26.5723 29.9102 27.2459 30.031 27.6897 30.4749C28.1335 30.9187 28.2544 31.5923 27.9922 32.1625L26.6539 35.071L27.9922 37.9796C28.2544 38.5498 28.1335 39.2234 27.6897 39.6672C27.2459 40.1111 26.5723 40.2319 26.0021 39.9697L23.0928 38.6321L20.185 39.9697C19.6147 40.2319 18.9412 40.1111 18.4973 39.6672C18.0535 39.2234 17.9327 38.5498 18.1949 37.9796L19.5318 35.071L18.1949 32.1625C17.9327 31.5923 18.0535 30.9187 18.4973 30.4749Z" fill="#FFD900" stroke="black" stroke-width="3" stroke-linejoin="round"/>
</svg>
