<svg width="78" height="78" viewBox="0 0 78 78" fill="none" xmlns="http://www.w3.org/2000/svg">
<path d="M18.2933 47.6315C16.3406 45.6789 16.3406 42.5131 18.2933 40.5605L40.2136 18.6402C42.1662 16.6875 45.332 16.6875 47.2846 18.6402L60.0126 31.3681C61.9652 33.3207 61.9652 36.4865 60.0126 38.4391L38.0923 60.3595C36.1396 62.3121 32.9738 62.3121 31.0212 60.3595L18.2933 47.6315Z" fill="#E2E2E2" stroke="white" stroke-width="6" stroke-linejoin="round"/>
<path d="M19.3539 46.5709C17.9871 45.204 17.9871 42.988 19.3539 41.6211L41.2742 19.7008C42.6411 18.334 44.8571 18.334 46.224 19.7008L58.9519 32.4287C60.3187 33.7956 60.3187 36.0116 58.9519 37.3785L37.0316 59.2988C35.6648 60.6656 33.4487 60.6656 32.0818 59.2988L19.3539 46.5709Z" fill="#E2E2E2" stroke="#23303C" stroke-width="3" stroke-linejoin="round"/>
<path d="M29.6065 31.3681L41.2738 19.7008C42.6406 18.334 44.8567 18.334 46.2236 19.7008L58.9515 32.4287C60.3183 33.7956 60.3183 36.0117 58.9515 37.3785L47.2842 49.0458L29.6065 31.3681Z" fill="#007AF3" stroke="#23303C" stroke-width="3"/>
<path d="M57.8915 36.318C58.6726 35.537 58.6726 34.2706 57.8915 33.4896L57.1844 32.7825L45.1636 44.8033L47.2849 46.9246L57.8915 36.318Z" fill="#1E5EA8"/>
<path d="M35.9709 58.2384C35.1898 59.0194 33.9235 59.0194 33.1424 58.2384L20.4145 45.5105C19.6335 44.7294 19.6335 43.4631 20.4145 42.682L21.1216 41.9749L36.678 57.5313L35.9709 58.2384Z" fill="#A9A9A9"/>
<path d="M35.9709 58.2384C35.1898 59.0194 33.9235 59.0194 33.1424 58.2384L32.4353 57.5313L43.0419 46.9247L45.1632 49.046L35.9709 58.2384Z" fill="#A9A9A9"/>
<path d="M21.1221 46.2175L20.415 45.5104C19.634 44.7294 19.634 43.463 20.415 42.682L29.6074 33.4896L31.7287 35.6109L21.1221 46.2175Z" fill="white"/>
</svg>
