<svg width="78" height="78" viewBox="0 0 78 78" fill="none" xmlns="http://www.w3.org/2000/svg">
<path d="M36.8272 31.8595L40.0347 34.0097C43.876 36.5849 48.982 36.1901 52.3819 33.0551L56.1989 29.5355" stroke="white" stroke-width="9" stroke-linecap="round"/>
<path d="M36.1533 17.0444C37.9543 15.3837 40.7609 15.4969 42.4217 17.2978L49.2873 24.7435C49.6999 25.191 50.0162 25.719 50.2161 26.2939L50.5855 27.3601L51.3209 27.6836C52.4461 28.1805 53.3151 29.1229 53.7193 30.2847L53.9816 31.0431L54.7169 31.3666C55.8425 31.8635 56.7112 32.8056 57.1153 33.9677L57.3776 34.7261L58.411 35.1813C58.9679 35.4271 59.4686 35.7851 59.8812 36.2326L61.3237 37.797C62.9843 39.5981 62.8699 42.4046 61.0689 44.0653L42.5081 61.18C40.7071 62.8404 37.9012 62.7267 36.2405 60.9259L34.798 59.3615C34.3855 58.9142 34.069 58.3858 33.8691 57.811L33.4983 56.7448L32.7644 56.4214C31.6392 55.9245 30.7708 54.9827 30.3666 53.821L30.1023 53.0618L29.3683 52.7384C28.2431 52.2415 27.3741 51.2991 26.9699 50.1373L26.7062 49.3788L25.6742 48.9237C25.1177 48.678 24.6171 48.3203 24.2047 47.8731L17.3384 40.4267C15.678 38.6257 15.7918 35.8197 17.5925 34.159L36.1533 17.0444Z" fill="#E2E2E2" stroke="white" stroke-width="6"/>
<path d="M28.1012 47.6737L48.7732 28.6123" stroke="#A9A9A9" stroke-width="3" stroke-linecap="round"/>
<path d="M31.6756 51.5498L52.3476 32.4884" stroke="#A9A9A9" stroke-width="3" stroke-linecap="round"/>
<path d="M35.249 55.4258L55.921 36.3644" stroke="#A9A9A9" stroke-width="3" stroke-linecap="round"/>
<path d="M18.5705 37.3378L39.2426 18.2764L41.6252 20.8604L20.9532 39.9218L18.5705 37.3378Z" fill="#007AF3"/>
<rect x="18.5954" y="38.5094" width="8.0316" height="5.27228" rx="2.63614" transform="rotate(-42.6787 18.5954 38.5094)" fill="#007AF3"/>
<rect x="23.7625" y="34.9403" width="3.62824" height="8.78714" rx="1.81412" transform="rotate(-42.6787 23.7625 34.9403)" fill="#007AF3"/>
<path d="M37.1701 18.1471C38.3621 17.048 40.2197 17.1228 41.3189 18.3146L48.1845 25.7603C48.4576 26.0564 48.6664 26.4062 48.7988 26.7866L49.3837 28.4683L50.7151 29.0565C51.4597 29.3853 52.0344 30.0085 52.3019 30.7774L52.7797 32.1513L54.1111 32.7395C54.8561 33.0684 55.4312 33.6919 55.6986 34.4611L56.1758 35.8343L57.8053 36.5541C58.1737 36.7168 58.5054 36.9533 58.7785 37.2494L60.221 38.8138C61.32 40.0059 61.2441 41.8635 60.0521 42.9626L41.4913 60.0772C40.2993 61.1761 38.4423 61.1008 37.3432 59.9091L35.9007 58.3447C35.6278 58.0486 35.4181 57.6994 35.2858 57.319L34.7009 55.636L33.3694 55.0492C32.6249 54.7203 32.0501 54.0971 31.7826 53.3283L31.3048 51.953L29.9734 51.3662C29.2288 51.0373 28.6541 50.414 28.3866 49.6453L27.9088 48.27L26.2793 47.5515C25.9111 47.3889 25.5803 47.1521 25.3074 46.8563L18.4412 39.4098C17.3423 38.2179 17.4176 36.3609 18.6093 35.2618L37.1701 18.1471Z" stroke="#23303C" stroke-width="3"/>
<circle cx="36.8271" cy="31.8589" r="3.0755" transform="rotate(-42.6787 36.8271 31.8589)" fill="#A9A9A9"/>
<path d="M36.8272 31.8595L40.0347 34.0097C43.876 36.5849 48.982 36.1901 52.3819 33.0551L56.1989 29.5355" stroke="#23303C" stroke-width="3" stroke-linecap="round"/>
</svg>
