<svg width="78" height="78" viewBox="0 0 78 78" fill="none" xmlns="http://www.w3.org/2000/svg">
<path d="M36.8271 31.8596L40.0346 34.0098C43.8759 36.585 48.9819 36.1902 52.3818 33.0553L56.1989 29.5356" stroke="white" stroke-width="9" stroke-linecap="round"/>
<path d="M36.1538 17.0444C37.9548 15.3837 40.7614 15.4969 42.4222 17.2978L49.2878 24.7435C49.7004 25.191 50.0167 25.719 50.2166 26.2939L50.586 27.3601L51.3214 27.6836C52.4466 28.1805 53.3156 29.1229 53.7198 30.2847L53.9821 31.0431L54.7174 31.3666C55.843 31.8635 56.7117 32.8056 57.1158 33.9677L57.3781 34.7261L58.4115 35.1813C58.9684 35.4271 59.4691 35.7851 59.8817 36.2326L61.3242 37.797C62.9848 39.5981 62.8704 42.4046 61.0694 44.0653L42.5086 61.18C40.7076 62.8404 37.9017 62.7267 36.241 60.9259L34.7985 59.3615C34.386 58.9142 34.0695 58.3858 33.8696 57.811L33.4989 56.7448L32.7649 56.4214C31.6397 55.9245 30.7713 54.9827 30.3671 53.821L30.1028 53.0618L29.3688 52.7384C28.2436 52.2415 27.3746 51.2991 26.9704 50.1373L26.7067 49.3788L25.6747 48.9237C25.1182 48.678 24.6176 48.3203 24.2052 47.8731L17.3389 40.4267C15.6785 38.6257 15.7923 35.8197 17.593 34.159L36.1538 17.0444Z" fill="#D9D9D9" stroke="white" stroke-width="6"/>
<path d="M28.1016 47.6736L48.7736 28.6122" stroke="#ADADAD" stroke-width="3" stroke-linecap="round"/>
<path d="M31.6758 51.5496L52.3478 32.4882" stroke="#ADADAD" stroke-width="3" stroke-linecap="round"/>
<path d="M35.249 55.4258L55.9211 36.3644" stroke="#ADADAD" stroke-width="3" stroke-linecap="round"/>
<path d="M18.5703 37.3376L39.2423 18.2763L41.625 20.8603L20.953 39.9217L18.5703 37.3376Z" fill="#0691E7"/>
<rect x="18.5947" y="38.5093" width="8.0316" height="5.27228" rx="2.63614" transform="rotate(-42.6787 18.5947 38.5093)" fill="#0691E7"/>
<rect x="23.7627" y="34.9404" width="3.62824" height="8.78714" rx="1.81412" transform="rotate(-42.6787 23.7627 34.9404)" fill="#0691E7"/>
<path d="M37.1706 18.1471C38.3626 17.048 40.2202 17.1228 41.3194 18.3146L48.185 25.7603C48.4581 26.0564 48.6669 26.4062 48.7993 26.7866L49.3842 28.4683L50.7156 29.0565C51.4602 29.3853 52.0349 30.0085 52.3024 30.7774L52.7802 32.1513L54.1116 32.7395C54.8566 33.0684 55.4317 33.6919 55.6991 34.4611L56.1763 35.8343L57.8058 36.5541C58.1742 36.7168 58.5059 36.9533 58.779 37.2494L60.2215 38.8138C61.3205 40.0059 61.2446 41.8635 60.0526 42.9626L41.4918 60.0772C40.2998 61.1761 38.4428 61.1008 37.3437 59.9091L35.9012 58.3447C35.6283 58.0486 35.4186 57.6994 35.2863 57.319L34.7014 55.636L33.3699 55.0492C32.6254 54.7203 32.0506 54.0971 31.7831 53.3283L31.3053 51.953L29.9739 51.3662C29.2293 51.0373 28.6546 50.414 28.3871 49.6453L27.9093 48.27L26.2798 47.5515C25.9116 47.3889 25.5808 47.1521 25.3079 46.8563L18.4417 39.4098C17.3428 38.2179 17.4181 36.3609 18.6098 35.2618L37.1706 18.1471Z" stroke="black" stroke-width="3"/>
<circle cx="36.8273" cy="31.8588" r="3.0755" transform="rotate(-42.6787 36.8273 31.8588)" fill="#ADADAD"/>
<path d="M36.8271 31.8596L40.0346 34.0098C43.8759 36.585 48.9819 36.1902 52.3818 33.0553L56.1989 29.5356" stroke="black" stroke-width="3" stroke-linecap="round"/>
</svg>
