<svg width="78" height="78" viewBox="0 0 78 78" fill="none" xmlns="http://www.w3.org/2000/svg">
<path d="M42.9111 16.1675C44.0138 15.372 45.5141 15.4169 46.5664 16.2778L44.667 18.6001C46.5666 16.2784 46.5674 16.279 46.5684 16.2798L46.5703 16.2817C46.5718 16.2829 46.5734 16.2842 46.5752 16.2856C46.5789 16.2887 46.5838 16.2922 46.5889 16.2964C46.5991 16.3049 46.6123 16.3165 46.6279 16.3296C46.6591 16.3557 46.7007 16.3909 46.752 16.4351C46.8552 16.524 46.9983 16.6501 47.1748 16.811C47.5275 17.1326 48.0171 17.5971 48.5967 18.1978C49.7538 19.397 51.285 21.1518 52.8154 23.4058C55.8679 27.9012 59 34.5093 59 42.7095C58.9999 54.2724 49.349 62.3999 39 62.3999C28.651 62.3999 19.0001 54.2724 19 42.7095C19 36.8845 21.5657 32.7062 24.0645 30.0483C25.307 28.7267 26.5461 27.7632 27.4814 27.1255C27.9512 26.8052 28.3505 26.5629 28.6436 26.395C28.79 26.3111 28.9107 26.2455 29.001 26.1978C29.0462 26.1738 29.0847 26.1542 29.1143 26.1392C29.1289 26.1317 29.1417 26.1249 29.1523 26.1196C29.1576 26.117 29.1628 26.1149 29.167 26.1128C29.169 26.1118 29.1711 26.1107 29.1729 26.1099L29.1748 26.1079C29.1761 26.1073 29.1779 26.1073 30.5 28.8003L29.1777 26.1069C30.1074 25.6505 31.2069 25.7059 32.0859 26.2534C32.9644 26.8007 33.4991 27.7625 33.5 28.7974V28.811C33.5001 28.8242 33.5006 28.8467 33.501 28.8774C33.5017 28.939 33.5026 29.0344 33.5059 29.1587C33.5125 29.4079 33.5257 29.7708 33.5527 30.2085C33.6061 31.0738 33.7114 32.1854 33.9082 33.2739C34.2529 32.5405 34.6517 31.7613 35.0918 31.0923C35.3927 30.6349 35.8008 30.0906 36.3301 29.6323C36.8425 29.1887 37.7544 28.5815 39 28.5815L39.2295 28.5894C40.358 28.6576 41.1895 29.2164 41.6699 29.6323C42.1992 30.0906 42.6073 30.6349 42.9082 31.0923C43.3716 31.7967 43.7887 32.6234 44.1455 33.3901C44.1715 33.1835 44.1965 32.9654 44.2148 32.7349C44.4676 29.5578 43.8647 24.9077 41.8643 19.6704C41.3792 18.4004 41.8087 16.963 42.9111 16.1675Z" fill="#FF4000" stroke="white" stroke-width="6" stroke-linejoin="round"/>
<path d="M43.7891 17.3833C44.3403 16.9857 45.0901 17.0087 45.6162 17.439L44.667 18.6001C45.5697 17.4968 45.6145 17.4422 45.6172 17.4399L45.6191 17.4409C45.62 17.4417 45.6209 17.4428 45.6221 17.4438C45.6246 17.4459 45.628 17.4484 45.6318 17.4517C45.6396 17.4581 45.6501 17.4671 45.6631 17.478C45.6894 17.5001 45.7269 17.5317 45.7734 17.5718C45.8665 17.652 45.9985 17.7685 46.1641 17.9194C46.4953 18.2214 46.9614 18.6634 47.5166 19.2388C48.6264 20.389 50.1006 22.0783 51.5742 24.2485C54.5171 28.5826 57.5 34.9003 57.5 42.7095C57.4999 53.359 48.6081 60.8999 39 60.8999C29.3919 60.8999 20.5001 53.3591 20.5 42.7095C20.5 37.3629 22.8454 33.5347 25.1572 31.0757C26.3098 29.8498 27.4611 28.9553 28.3271 28.3647C28.7609 28.069 29.126 27.8472 29.3887 27.6968C29.5201 27.6215 29.6268 27.5633 29.7031 27.5229C29.7411 27.5028 29.7722 27.4877 29.7949 27.4761C29.8063 27.4703 29.8159 27.4651 29.8232 27.4614C29.8267 27.4597 29.8295 27.4578 29.832 27.4565C29.8334 27.4559 29.8349 27.4551 29.8359 27.4546H29.8379C29.8417 27.4607 29.8864 27.5504 30.5 28.8003L29.8389 27.4536C30.3037 27.2254 30.8534 27.253 31.293 27.5269C31.7324 27.8006 31.9998 28.2816 32 28.7993V28.8198C32.0001 28.836 32.0006 28.8619 32.001 28.896C32.0018 28.9641 32.0033 29.0668 32.0068 29.1987C32.0138 29.4628 32.0274 29.8434 32.0557 30.3013C32.1125 31.2225 32.2261 32.4322 32.4473 33.6265C32.673 34.8457 32.9916 35.9336 33.4053 36.6782C33.5428 36.9257 33.6696 37.0979 33.7812 37.2192C33.7872 37.2072 33.7947 37.1955 33.8008 37.1831C34.1262 36.5164 34.4749 35.6678 34.915 34.6802C35.3291 33.7511 35.8137 32.7238 36.3447 31.9165C36.6095 31.514 36.9299 31.0976 37.3115 30.7671C37.6848 30.4438 38.259 30.0815 39 30.0815L39.1367 30.0864C39.8118 30.1273 40.3385 30.464 40.6885 30.7671C41.0701 31.0976 41.3905 31.5141 41.6553 31.9165C42.1863 32.7238 42.6709 33.7511 43.085 34.6802C43.5251 35.6678 43.8738 36.5164 44.1992 37.1831C44.2158 37.217 44.2335 37.2487 44.249 37.2798C44.4036 37.1503 44.5777 36.9491 44.7598 36.6313C45.2064 35.8517 45.572 34.588 45.71 32.854C45.9839 29.411 45.3284 24.5357 43.2656 19.1353C43.023 18.5002 43.2377 17.7811 43.7891 17.3833Z" fill="#FF4000" stroke="black" stroke-width="3" stroke-linejoin="round"/>
<path d="M23.7004 46.3667C22.0003 36.1667 30.5004 29.9333 30.5004 29.9333" stroke="#FF9774" stroke-width="3" stroke-linecap="round"/>
<path d="M53.7338 46.9334C57.1336 33.3334 44.6659 18.6001 44.6659 18.6001" stroke="#C73504" stroke-width="3" stroke-linecap="round"/>
<path d="M43.7891 17.3833C44.3403 16.9857 45.0901 17.0087 45.6162 17.439L44.667 18.6001C45.5697 17.4968 45.6145 17.4422 45.6172 17.4399L45.6191 17.4409C45.62 17.4417 45.6209 17.4428 45.6221 17.4438C45.6246 17.4459 45.628 17.4484 45.6318 17.4517C45.6396 17.4581 45.6501 17.4671 45.6631 17.478C45.6894 17.5001 45.7269 17.5317 45.7734 17.5718C45.8665 17.652 45.9985 17.7685 46.1641 17.9194C46.4953 18.2214 46.9614 18.6634 47.5166 19.2388C48.6264 20.389 50.1006 22.0783 51.5742 24.2485C54.5171 28.5826 57.5 34.9003 57.5 42.7095C57.4999 53.359 48.6081 60.8999 39 60.8999C29.3919 60.8999 20.5001 53.3591 20.5 42.7095C20.5 37.3629 22.8454 33.5347 25.1572 31.0757C26.3098 29.8498 27.4611 28.9553 28.3271 28.3647C28.7609 28.069 29.126 27.8472 29.3887 27.6968C29.5201 27.6215 29.6268 27.5633 29.7031 27.5229C29.7411 27.5028 29.7722 27.4877 29.7949 27.4761C29.8063 27.4703 29.8159 27.4651 29.8232 27.4614C29.8267 27.4597 29.8295 27.4578 29.832 27.4565C29.8334 27.4559 29.8349 27.4551 29.8359 27.4546H29.8379C29.8417 27.4607 29.8864 27.5504 30.5 28.8003L29.8389 27.4536C30.3037 27.2254 30.8534 27.253 31.293 27.5269C31.7324 27.8006 31.9998 28.2816 32 28.7993V28.8198C32.0001 28.836 32.0006 28.8619 32.001 28.896C32.0018 28.9641 32.0033 29.0668 32.0068 29.1987C32.0138 29.4628 32.0274 29.8434 32.0557 30.3013C32.1125 31.2225 32.2261 32.4322 32.4473 33.6265C32.673 34.8457 32.9916 35.9336 33.4053 36.6782C33.5428 36.9257 33.6696 37.0979 33.7812 37.2192C33.7872 37.2072 33.7947 37.1955 33.8008 37.1831C34.1262 36.5164 34.4749 35.6678 34.915 34.6802C35.3291 33.7511 35.8137 32.7238 36.3447 31.9165C36.6095 31.514 36.9299 31.0976 37.3115 30.7671C37.6848 30.4438 38.259 30.0815 39 30.0815L39.1367 30.0864C39.8118 30.1273 40.3385 30.464 40.6885 30.7671C41.0701 31.0976 41.3905 31.5141 41.6553 31.9165C42.1863 32.7238 42.6709 33.7511 43.085 34.6802C43.5251 35.6678 43.8738 36.5164 44.1992 37.1831C44.2158 37.217 44.2335 37.2487 44.249 37.2798C44.4036 37.1503 44.5777 36.9491 44.7598 36.6313C45.2064 35.8517 45.572 34.588 45.71 32.854C45.9839 29.411 45.3284 24.5357 43.2656 19.1353C43.023 18.5002 43.2377 17.7811 43.7891 17.3833Z" stroke="black" stroke-width="3" stroke-linejoin="round"/>
<path d="M39 59.3999C46.5519 59.3999 52.9537 54.4757 55.1696 47.6629C55.8943 45.435 53.4347 43.9676 51.4356 45.1892L49.0643 46.6384C48.104 47.2252 46.896 47.2252 45.9356 46.6384L40.5643 43.3559C39.604 42.769 38.396 42.769 37.4356 43.3559L32.0643 46.6384C31.104 47.2252 29.896 47.2252 28.9356 46.6384L26.5644 45.1892C24.5653 43.9676 22.1057 45.435 22.8304 47.6629C25.0463 54.4757 31.4481 59.3999 39 59.3999Z" fill="#FFC005"/>
</svg>
