<svg width="78" height="78" viewBox="0 0 78 78" fill="none" xmlns="http://www.w3.org/2000/svg">
<path d="M42.9111 16.1674C44.0138 15.3719 45.5141 15.4168 46.5664 16.2777L44.667 18.6C46.5666 16.2783 46.5674 16.2789 46.5684 16.2797L46.5703 16.2816C46.5718 16.2828 46.5734 16.2841 46.5752 16.2855C46.5789 16.2886 46.5838 16.2921 46.5889 16.2963C46.5991 16.3048 46.6123 16.3164 46.6279 16.3295C46.6591 16.3556 46.7007 16.3907 46.752 16.4349C46.8552 16.5239 46.9983 16.65 47.1748 16.8109C47.5275 17.1325 48.0171 17.597 48.5967 18.1976C49.7538 19.3969 51.285 21.1517 52.8154 23.4056C55.8679 27.9011 59 34.5092 59 42.7094C58.9999 54.2722 49.349 62.3997 39 62.3998C28.651 62.3998 19.0001 54.2722 19 42.7094C19 36.8844 21.5657 32.7061 24.0645 30.0482C25.307 28.7266 26.5461 27.7631 27.4814 27.1254C27.9512 26.8051 28.3505 26.5627 28.6436 26.3949C28.79 26.311 28.9107 26.2454 29.001 26.1976C29.0462 26.1737 29.0847 26.1541 29.1143 26.139C29.1289 26.1316 29.1417 26.1248 29.1523 26.1195C29.1576 26.1169 29.1628 26.1148 29.167 26.1127C29.169 26.1117 29.1711 26.1106 29.1729 26.1097L29.1748 26.1078C29.1761 26.1072 29.1779 26.1072 30.5 28.8002L29.1777 26.1068C30.1074 25.6504 31.2069 25.7058 32.0859 26.2533C32.9644 26.8006 33.4991 27.7624 33.5 28.7972V28.8109C33.5001 28.824 33.5006 28.8466 33.501 28.8773C33.5017 28.9389 33.5026 29.0343 33.5059 29.1586C33.5125 29.4078 33.5257 29.7707 33.5527 30.2084C33.6061 31.0737 33.7114 32.1853 33.9082 33.2738C34.2529 32.5404 34.6517 31.7611 35.0918 31.0922C35.3927 30.6348 35.8008 30.0905 36.3301 29.6322C36.8425 29.1886 37.7544 28.5814 39 28.5814L39.2295 28.5892C40.358 28.6575 41.1895 29.2163 41.6699 29.6322C42.1992 30.0905 42.6073 30.6348 42.9082 31.0922C43.3716 31.7965 43.7887 32.6233 44.1455 33.39C44.1715 33.1834 44.1965 32.9653 44.2148 32.7347C44.4676 29.5577 43.8647 24.9076 41.8643 19.6703C41.3792 18.4002 41.8087 16.9629 42.9111 16.1674Z" fill="#FF4000" stroke="white" stroke-width="6" stroke-linejoin="round"/>
<path d="M43.7891 17.3833C44.3403 16.9857 45.0901 17.0087 45.6162 17.439L44.667 18.6001C45.5697 17.4968 45.6145 17.4422 45.6172 17.4399L45.6191 17.4409C45.62 17.4417 45.6209 17.4428 45.6221 17.4438C45.6246 17.4459 45.628 17.4484 45.6318 17.4517C45.6396 17.4581 45.6501 17.4671 45.6631 17.478C45.6894 17.5001 45.7269 17.5317 45.7734 17.5718C45.8665 17.652 45.9985 17.7685 46.1641 17.9194C46.4953 18.2214 46.9614 18.6634 47.5166 19.2388C48.6264 20.389 50.1006 22.0783 51.5742 24.2485C54.5171 28.5826 57.5 34.9003 57.5 42.7095C57.4999 53.359 48.6081 60.8999 39 60.8999C29.3919 60.8999 20.5001 53.3591 20.5 42.7095C20.5 37.3629 22.8454 33.5347 25.1572 31.0757C26.3098 29.8498 27.4611 28.9553 28.3271 28.3647C28.7609 28.069 29.126 27.8472 29.3887 27.6968C29.5201 27.6215 29.6268 27.5633 29.7031 27.5229C29.7411 27.5028 29.7722 27.4877 29.7949 27.4761C29.8063 27.4703 29.8159 27.4651 29.8232 27.4614C29.8267 27.4597 29.8295 27.4578 29.832 27.4565C29.8334 27.4559 29.8349 27.4551 29.8359 27.4546H29.8379C29.8417 27.4607 29.8864 27.5504 30.5 28.8003L29.8389 27.4536C30.3037 27.2254 30.8534 27.253 31.293 27.5269C31.7324 27.8006 31.9998 28.2816 32 28.7993V28.8198C32.0001 28.836 32.0006 28.8619 32.001 28.896C32.0018 28.9641 32.0033 29.0668 32.0068 29.1987C32.0138 29.4628 32.0274 29.8434 32.0557 30.3013C32.1125 31.2225 32.2261 32.4322 32.4473 33.6265C32.673 34.8457 32.9916 35.9336 33.4053 36.6782C33.5428 36.9257 33.6696 37.0979 33.7812 37.2192C33.7872 37.2072 33.7947 37.1955 33.8008 37.1831C34.1262 36.5164 34.4749 35.6678 34.915 34.6802C35.3291 33.7511 35.8137 32.7238 36.3447 31.9165C36.6095 31.514 36.9299 31.0976 37.3115 30.7671C37.6848 30.4438 38.259 30.0815 39 30.0815L39.1367 30.0864C39.8118 30.1273 40.3385 30.464 40.6885 30.7671C41.0701 31.0976 41.3905 31.5141 41.6553 31.9165C42.1863 32.7238 42.6709 33.7511 43.085 34.6802C43.5251 35.6678 43.8738 36.5164 44.1992 37.1831C44.2158 37.217 44.2335 37.2487 44.249 37.2798C44.4036 37.1503 44.5777 36.9491 44.7598 36.6313C45.2064 35.8517 45.572 34.588 45.71 32.854C45.9839 29.411 45.3284 24.5357 43.2656 19.1353C43.023 18.5002 43.2377 17.7811 43.7891 17.3833Z" fill="#FF4000" stroke="#23303C" stroke-width="3" stroke-linejoin="round"/>
<path d="M23.7001 46.3667C21.5533 36.066 30.2095 29.8674 30.5001 29.9334" stroke="#FF9774" stroke-width="3" stroke-linecap="round"/>
<path d="M53.7336 46.9333C57.1333 33.3333 44.6656 18.6 44.6656 18.6" stroke="#C43838" stroke-width="3" stroke-linecap="round"/>
<path d="M43.7891 17.3832C44.3403 16.9856 45.0901 17.0086 45.6162 17.4388L44.667 18.6C45.5697 17.4967 45.6145 17.4421 45.6172 17.4398L45.6191 17.4408C45.62 17.4415 45.6209 17.4427 45.6221 17.4437C45.6246 17.4458 45.628 17.4483 45.6318 17.4515C45.6396 17.458 45.6501 17.467 45.6631 17.4779C45.6894 17.5 45.7269 17.5315 45.7734 17.5717C45.8665 17.6519 45.9985 17.7684 46.1641 17.9193C46.4953 18.2213 46.9614 18.6632 47.5166 19.2386C48.6264 20.3888 50.1006 22.0782 51.5742 24.2484C54.5171 28.5825 57.5 34.9002 57.5 42.7094C57.4999 53.3589 48.6081 60.8997 39 60.8998C29.3919 60.8998 20.5001 53.3589 20.5 42.7094C20.5 37.3628 22.8454 33.5346 25.1572 31.0756C26.3098 29.8497 27.4611 28.9552 28.3271 28.3646C28.7609 28.0689 29.126 27.8471 29.3887 27.6967C29.5201 27.6214 29.6268 27.5632 29.7031 27.5228C29.7411 27.5027 29.7722 27.4875 29.7949 27.476C29.8063 27.4702 29.8159 27.465 29.8232 27.4613C29.8267 27.4596 29.8295 27.4577 29.832 27.4564C29.8334 27.4558 29.8349 27.455 29.8359 27.4545H29.8379C29.8417 27.4606 29.8864 27.5503 30.5 28.8002L29.8389 27.4535C30.3037 27.2253 30.8534 27.2529 31.293 27.5267C31.7324 27.8005 31.9998 28.2815 32 28.7992V28.8197C32.0001 28.8359 32.0006 28.8618 32.001 28.8959C32.0018 28.964 32.0033 29.0667 32.0068 29.1986C32.0138 29.4627 32.0274 29.8433 32.0557 30.3011C32.1125 31.2224 32.2261 32.4321 32.4473 33.6263C32.673 34.8456 32.9916 35.9334 33.4053 36.6781C33.5428 36.9255 33.6696 37.0977 33.7812 37.2191C33.7872 37.2071 33.7947 37.1954 33.8008 37.183C34.1262 36.5163 34.4749 35.6677 34.915 34.6801C35.3291 33.7509 35.8137 32.7237 36.3447 31.9164C36.6095 31.5139 36.9299 31.0975 37.3115 30.767C37.6848 30.4437 38.259 30.0814 39 30.0814L39.1367 30.0863C39.8118 30.1272 40.3385 30.4639 40.6885 30.767C41.0701 31.0975 41.3905 31.5139 41.6553 31.9164C42.1863 32.7237 42.6709 33.7509 43.085 34.6801C43.5251 35.6677 43.8738 36.5163 44.1992 37.183C44.2158 37.2169 44.2335 37.2486 44.249 37.2797C44.4036 37.1502 44.5777 36.949 44.7598 36.6312C45.2064 35.8516 45.572 34.5878 45.71 32.8539C45.9839 29.4108 45.3284 24.5356 43.2656 19.1351C43.023 18.5 43.2377 17.7809 43.7891 17.3832Z" stroke="#23303C" stroke-width="3" stroke-linejoin="round"/>
<path d="M39 59.4C46.5519 59.4 52.9537 54.4758 55.1696 47.663C55.8943 45.4351 53.4347 43.9677 51.4356 45.1893L49.0643 46.6385C48.104 47.2254 46.896 47.2253 45.9356 46.6385L40.5643 43.356C39.604 42.7691 38.396 42.7691 37.4356 43.356L32.0643 46.6385C31.104 47.2254 29.896 47.2253 28.9356 46.6385L26.5644 45.1893C24.5653 43.9677 22.1057 45.4351 22.8304 47.663C25.0463 54.4758 31.4481 59.4 39 59.4Z" fill="#FFC005"/>
</svg>
