<svg width="78" height="78" viewBox="0 0 78 78" fill="none" xmlns="http://www.w3.org/2000/svg">
<mask id="path-2-outside-1_224_258" maskUnits="userSpaceOnUse" x="13.5349" y="12.9923" width="51" height="50" fill="black">
<rect fill="white" x="13.5349" y="12.9923" width="51" height="50"/>
<path d="M43.1029 30.793C41.4121 34.1744 36.5866 34.1744 34.8958 30.793C34.7987 30.5988 34.7155 30.3979 34.6468 30.1919L33.5981 27.0455C32.9554 25.1175 32.513 22.9251 33.7207 21.2905C34.5984 20.1025 36.1744 18.9922 38.9993 18.9923C41.824 18.9924 43.4 20.1025 44.2778 21.2904C45.4857 22.925 45.0432 25.1175 44.4005 27.0457L43.3519 30.1919C43.2832 30.3979 43.2 30.5988 43.1029 30.793Z"/>
<path d="M48.0726 40.3665C44.3341 39.8034 42.843 35.214 45.5365 32.5611C45.6912 32.4087 45.8565 32.2675 46.0312 32.1385L48.6995 30.1688C50.3346 28.9618 52.2829 27.8636 54.2107 28.507C55.6118 28.9747 57.1547 30.1304 58.0276 32.8171C58.9004 35.5036 58.3316 37.3455 57.4731 38.5474C56.2918 40.2013 54.0699 40.4581 52.0374 40.4427L48.7212 40.4175C48.504 40.4159 48.2873 40.3988 48.0726 40.3665Z"/>
<path d="M40.5034 48.0513C39.8837 44.3218 43.7876 41.4855 47.1431 43.2273C47.3358 43.3274 47.5211 43.4409 47.6978 43.5672L50.3956 45.4963C52.0488 46.6784 53.6954 48.1919 53.6791 50.2242C53.6673 51.7013 53.045 53.5258 50.7595 55.1862C48.4742 56.8465 46.5467 56.8747 45.1384 56.4296C43.2003 55.8172 42.2695 53.7834 41.6561 51.8456L40.6552 48.6839C40.5897 48.4769 40.539 48.2655 40.5034 48.0513Z"/>
<path d="M30.8556 43.2273C34.2111 41.4855 38.115 44.3218 37.4953 48.0513C37.4597 48.2655 37.409 48.4769 37.3434 48.6839L36.3425 51.8458C35.7291 53.7834 34.7984 55.8171 32.8606 56.4297C31.4522 56.8749 29.5246 56.8468 27.2393 55.1863C24.9541 53.5259 24.3316 51.7014 24.3197 50.2245C24.3032 48.1921 25.9499 46.6783 27.6032 45.4961L30.3009 43.5672C30.4775 43.4409 30.6629 43.3273 30.8556 43.2273Z"/>
<path d="M32.4622 32.5611C35.1557 35.214 33.6645 39.8034 29.9261 40.3665C29.7114 40.3988 29.4946 40.4159 29.2775 40.4175L25.961 40.4427C23.9287 40.4581 21.707 40.2014 20.5256 38.5477C19.667 37.3458 19.098 35.5038 19.971 32.8172C20.844 30.1308 22.3868 28.975 23.7878 28.5072C25.7157 27.8636 27.6642 28.9619 29.2994 30.169L31.9675 32.1385C32.1422 32.2675 32.3075 32.4087 32.4622 32.5611Z"/>
</mask>
<path d="M43.1029 30.793C41.4121 34.1744 36.5866 34.1744 34.8958 30.793C34.7987 30.5988 34.7155 30.3979 34.6468 30.1919L33.5981 27.0455C32.9554 25.1175 32.513 22.9251 33.7207 21.2905C34.5984 20.1025 36.1744 18.9922 38.9993 18.9923C41.824 18.9924 43.4 20.1025 44.2778 21.2904C45.4857 22.925 45.0432 25.1175 44.4005 27.0457L43.3519 30.1919C43.2832 30.3979 43.2 30.5988 43.1029 30.793Z" fill="#D9D9D9"/>
<path d="M48.0726 40.3665C44.3341 39.8034 42.843 35.214 45.5365 32.5611C45.6912 32.4087 45.8565 32.2675 46.0312 32.1385L48.6995 30.1688C50.3346 28.9618 52.2829 27.8636 54.2107 28.507C55.6118 28.9747 57.1547 30.1304 58.0276 32.8171C58.9004 35.5036 58.3316 37.3455 57.4731 38.5474C56.2918 40.2013 54.0699 40.4581 52.0374 40.4427L48.7212 40.4175C48.504 40.4159 48.2873 40.3988 48.0726 40.3665Z" fill="#D9D9D9"/>
<path d="M40.5034 48.0513C39.8837 44.3218 43.7876 41.4855 47.1431 43.2273C47.3358 43.3274 47.5211 43.4409 47.6978 43.5672L50.3956 45.4963C52.0488 46.6784 53.6954 48.1919 53.6791 50.2242C53.6673 51.7013 53.045 53.5258 50.7595 55.1862C48.4742 56.8465 46.5467 56.8747 45.1384 56.4296C43.2003 55.8172 42.2695 53.7834 41.6561 51.8456L40.6552 48.6839C40.5897 48.4769 40.539 48.2655 40.5034 48.0513Z" fill="#D9D9D9"/>
<path d="M30.8556 43.2273C34.2111 41.4855 38.115 44.3218 37.4953 48.0513C37.4597 48.2655 37.409 48.4769 37.3434 48.6839L36.3425 51.8458C35.7291 53.7834 34.7984 55.8171 32.8606 56.4297C31.4522 56.8749 29.5246 56.8468 27.2393 55.1863C24.9541 53.5259 24.3316 51.7014 24.3197 50.2245C24.3032 48.1921 25.9499 46.6783 27.6032 45.4961L30.3009 43.5672C30.4775 43.4409 30.6629 43.3273 30.8556 43.2273Z" fill="#D9D9D9"/>
<path d="M32.4622 32.5611C35.1557 35.214 33.6645 39.8034 29.9261 40.3665C29.7114 40.3988 29.4946 40.4159 29.2775 40.4175L25.961 40.4427C23.9287 40.4581 21.707 40.2014 20.5256 38.5477C19.667 37.3458 19.098 35.5038 19.971 32.8172C20.844 30.1308 22.3868 28.975 23.7878 28.5072C25.7157 27.8636 27.6642 28.9619 29.2994 30.169L31.9675 32.1385C32.1422 32.2675 32.3075 32.4087 32.4622 32.5611Z" fill="#D9D9D9"/>
<path d="M43.1029 30.793C41.4121 34.1744 36.5866 34.1744 34.8958 30.793C34.7987 30.5988 34.7155 30.3979 34.6468 30.1919L33.5981 27.0455C32.9554 25.1175 32.513 22.9251 33.7207 21.2905C34.5984 20.1025 36.1744 18.9922 38.9993 18.9923C41.824 18.9924 43.4 20.1025 44.2778 21.2904C45.4857 22.925 45.0432 25.1175 44.4005 27.0457L43.3519 30.1919C43.2832 30.3979 43.2 30.5988 43.1029 30.793Z" stroke="white" stroke-width="12" mask="url(#path-2-outside-1_224_258)"/>
<path d="M48.0726 40.3665C44.3341 39.8034 42.843 35.214 45.5365 32.5611C45.6912 32.4087 45.8565 32.2675 46.0312 32.1385L48.6995 30.1688C50.3346 28.9618 52.2829 27.8636 54.2107 28.507C55.6118 28.9747 57.1547 30.1304 58.0276 32.8171C58.9004 35.5036 58.3316 37.3455 57.4731 38.5474C56.2918 40.2013 54.0699 40.4581 52.0374 40.4427L48.7212 40.4175C48.504 40.4159 48.2873 40.3988 48.0726 40.3665Z" stroke="white" stroke-width="12" mask="url(#path-2-outside-1_224_258)"/>
<path d="M40.5034 48.0513C39.8837 44.3218 43.7876 41.4855 47.1431 43.2273C47.3358 43.3274 47.5211 43.4409 47.6978 43.5672L50.3956 45.4963C52.0488 46.6784 53.6954 48.1919 53.6791 50.2242C53.6673 51.7013 53.045 53.5258 50.7595 55.1862C48.4742 56.8465 46.5467 56.8747 45.1384 56.4296C43.2003 55.8172 42.2695 53.7834 41.6561 51.8456L40.6552 48.6839C40.5897 48.4769 40.539 48.2655 40.5034 48.0513Z" stroke="white" stroke-width="12" mask="url(#path-2-outside-1_224_258)"/>
<path d="M30.8556 43.2273C34.2111 41.4855 38.115 44.3218 37.4953 48.0513C37.4597 48.2655 37.409 48.4769 37.3434 48.6839L36.3425 51.8458C35.7291 53.7834 34.7984 55.8171 32.8606 56.4297C31.4522 56.8749 29.5246 56.8468 27.2393 55.1863C24.9541 53.5259 24.3316 51.7014 24.3197 50.2245C24.3032 48.1921 25.9499 46.6783 27.6032 45.4961L30.3009 43.5672C30.4775 43.4409 30.6629 43.3273 30.8556 43.2273Z" stroke="white" stroke-width="12" mask="url(#path-2-outside-1_224_258)"/>
<path d="M32.4622 32.5611C35.1557 35.214 33.6645 39.8034 29.9261 40.3665C29.7114 40.3988 29.4946 40.4159 29.2775 40.4175L25.961 40.4427C23.9287 40.4581 21.707 40.2014 20.5256 38.5477C19.667 37.3458 19.098 35.5038 19.971 32.8172C20.844 30.1308 22.3868 28.975 23.7878 28.5072C25.7157 27.8636 27.6642 28.9619 29.2994 30.169L31.9675 32.1385C32.1422 32.2675 32.3075 32.4087 32.4622 32.5611Z" stroke="white" stroke-width="12" mask="url(#path-2-outside-1_224_258)"/>
<mask id="path-3-outside-2_224_258" maskUnits="userSpaceOnUse" x="16.5348" y="15.9927" width="45" height="44" fill="black">
<rect fill="white" x="16.5348" y="15.9927" width="45" height="44"/>
<path d="M43.1028 30.7933C41.4121 34.1748 36.5865 34.1748 34.8957 30.7933C34.7986 30.5991 34.7154 30.3983 34.6468 30.1923L33.598 27.0459C32.9554 25.1178 32.5129 22.9255 33.7206 21.2909C34.5983 20.1029 36.1743 18.9926 38.9992 18.9927C41.8239 18.9928 43.3999 20.1029 44.2777 21.2908C45.4856 22.9254 45.0432 25.1179 44.4005 27.0461L43.3518 30.1923C43.2831 30.3983 43.1999 30.5991 43.1028 30.7933Z"/>
<path d="M48.0725 40.3668C44.3341 39.8037 42.8429 35.2144 45.5364 32.5614C45.6911 32.4091 45.8564 32.2679 46.0311 32.1389L48.6994 30.1692C50.3345 28.9622 52.2828 27.8639 54.2107 28.5074C55.6117 28.9751 57.1547 30.1308 58.0275 32.8175C58.9004 35.504 58.3316 37.3459 57.4731 38.5478C56.2917 40.2017 54.0698 40.4584 52.0374 40.443L48.7211 40.4179C48.504 40.4162 48.2873 40.3992 48.0725 40.3668Z"/>
<path d="M40.5033 48.0517C39.8836 44.3222 43.7876 41.4858 47.143 43.2277C47.3357 43.3277 47.5211 43.4413 47.6977 43.5676L50.3956 45.4966C52.0488 46.6787 53.6953 48.1923 53.6791 50.2246C53.6673 51.7016 53.0449 53.5262 50.7595 55.1866C48.4742 56.8468 46.5467 56.8751 45.1383 56.43C43.2003 55.8176 42.2695 53.7837 41.6561 51.846L40.6552 48.6843C40.5897 48.4773 40.5389 48.2659 40.5033 48.0517Z"/>
<path d="M30.8556 43.2277C34.211 41.4858 38.115 44.3222 37.4953 48.0517C37.4597 48.2659 37.4089 48.4773 37.3434 48.6843L36.3424 51.8462C35.7291 53.7838 34.7984 55.8175 32.8605 56.4301C31.4522 56.8753 29.5246 56.8472 27.2392 55.1866C24.954 53.5263 24.3315 51.7018 24.3196 50.2249C24.3032 48.1924 25.9498 46.6787 27.6032 45.4965L30.3009 43.5676C30.4775 43.4413 30.6629 43.3277 30.8556 43.2277Z"/>
<path d="M32.4622 32.5614C35.1557 35.2144 33.6645 39.8037 29.926 40.3668C29.7113 40.3992 29.4946 40.4162 29.2775 40.4179L25.961 40.443C23.9287 40.4584 21.7069 40.2017 20.5255 38.548C19.6669 37.3461 19.098 35.5042 19.971 32.8176C20.8439 30.1311 22.3867 28.9754 23.7877 28.5076C25.7156 27.8639 27.6641 28.9622 29.2993 30.1693L31.9675 32.1389C32.1422 32.2679 32.3075 32.4091 32.4622 32.5614Z"/>
</mask>
<path d="M43.1028 30.7933C41.4121 34.1748 36.5865 34.1748 34.8957 30.7933C34.7986 30.5991 34.7154 30.3983 34.6468 30.1923L33.598 27.0459C32.9554 25.1178 32.5129 22.9255 33.7206 21.2909C34.5983 20.1029 36.1743 18.9926 38.9992 18.9927C41.8239 18.9928 43.3999 20.1029 44.2777 21.2908C45.4856 22.9254 45.0432 25.1179 44.4005 27.0461L43.3518 30.1923C43.2831 30.3983 43.1999 30.5991 43.1028 30.7933Z" fill="#D1A3FF"/>
<path d="M48.0725 40.3668C44.3341 39.8037 42.8429 35.2144 45.5364 32.5614C45.6911 32.4091 45.8564 32.2679 46.0311 32.1389L48.6994 30.1692C50.3345 28.9622 52.2828 27.8639 54.2107 28.5074C55.6117 28.9751 57.1547 30.1308 58.0275 32.8175C58.9004 35.504 58.3316 37.3459 57.4731 38.5478C56.2917 40.2017 54.0698 40.4584 52.0374 40.443L48.7211 40.4179C48.504 40.4162 48.2873 40.3992 48.0725 40.3668Z" fill="#D1A3FF"/>
<path d="M40.5033 48.0517C39.8836 44.3222 43.7876 41.4858 47.143 43.2277C47.3357 43.3277 47.5211 43.4413 47.6977 43.5676L50.3956 45.4966C52.0488 46.6787 53.6953 48.1923 53.6791 50.2246C53.6673 51.7016 53.0449 53.5262 50.7595 55.1866C48.4742 56.8468 46.5467 56.8751 45.1383 56.43C43.2003 55.8176 42.2695 53.7837 41.6561 51.846L40.6552 48.6843C40.5897 48.4773 40.5389 48.2659 40.5033 48.0517Z" fill="#D1A3FF"/>
<path d="M30.8556 43.2277C34.211 41.4858 38.115 44.3222 37.4953 48.0517C37.4597 48.2659 37.4089 48.4773 37.3434 48.6843L36.3424 51.8462C35.7291 53.7838 34.7984 55.8175 32.8605 56.4301C31.4522 56.8753 29.5246 56.8472 27.2392 55.1866C24.954 53.5263 24.3315 51.7018 24.3196 50.2249C24.3032 48.1924 25.9498 46.6787 27.6032 45.4965L30.3009 43.5676C30.4775 43.4413 30.6629 43.3277 30.8556 43.2277Z" fill="#D1A3FF"/>
<path d="M32.4622 32.5614C35.1557 35.2144 33.6645 39.8037 29.926 40.3668C29.7113 40.3992 29.4946 40.4162 29.2775 40.4179L25.961 40.443C23.9287 40.4584 21.7069 40.2017 20.5255 38.548C19.6669 37.3461 19.098 35.5042 19.971 32.8176C20.8439 30.1311 22.3867 28.9754 23.7877 28.5076C25.7156 27.8639 27.6641 28.9622 29.2993 30.1693L31.9675 32.1389C32.1422 32.2679 32.3075 32.4091 32.4622 32.5614Z" fill="#D1A3FF"/>
<path d="M43.1028 30.7933C41.4121 34.1748 36.5865 34.1748 34.8957 30.7933C34.7986 30.5991 34.7154 30.3983 34.6468 30.1923L33.598 27.0459C32.9554 25.1178 32.5129 22.9255 33.7206 21.2909C34.5983 20.1029 36.1743 18.9926 38.9992 18.9927C41.8239 18.9928 43.3999 20.1029 44.2777 21.2908C45.4856 22.9254 45.0432 25.1179 44.4005 27.0461L43.3518 30.1923C43.2831 30.3983 43.1999 30.5991 43.1028 30.7933Z" stroke="#23303C" stroke-width="6" mask="url(#path-3-outside-2_224_258)"/>
<path d="M48.0725 40.3668C44.3341 39.8037 42.8429 35.2144 45.5364 32.5614C45.6911 32.4091 45.8564 32.2679 46.0311 32.1389L48.6994 30.1692C50.3345 28.9622 52.2828 27.8639 54.2107 28.5074C55.6117 28.9751 57.1547 30.1308 58.0275 32.8175C58.9004 35.504 58.3316 37.3459 57.4731 38.5478C56.2917 40.2017 54.0698 40.4584 52.0374 40.443L48.7211 40.4179C48.504 40.4162 48.2873 40.3992 48.0725 40.3668Z" stroke="#23303C" stroke-width="6" mask="url(#path-3-outside-2_224_258)"/>
<path d="M40.5033 48.0517C39.8836 44.3222 43.7876 41.4858 47.143 43.2277C47.3357 43.3277 47.5211 43.4413 47.6977 43.5676L50.3956 45.4966C52.0488 46.6787 53.6953 48.1923 53.6791 50.2246C53.6673 51.7016 53.0449 53.5262 50.7595 55.1866C48.4742 56.8468 46.5467 56.8751 45.1383 56.43C43.2003 55.8176 42.2695 53.7837 41.6561 51.846L40.6552 48.6843C40.5897 48.4773 40.5389 48.2659 40.5033 48.0517Z" stroke="#23303C" stroke-width="6" mask="url(#path-3-outside-2_224_258)"/>
<path d="M30.8556 43.2277C34.211 41.4858 38.115 44.3222 37.4953 48.0517C37.4597 48.2659 37.4089 48.4773 37.3434 48.6843L36.3424 51.8462C35.7291 53.7838 34.7984 55.8175 32.8605 56.4301C31.4522 56.8753 29.5246 56.8472 27.2392 55.1866C24.954 53.5263 24.3315 51.7018 24.3196 50.2249C24.3032 48.1924 25.9498 46.6787 27.6032 45.4965L30.3009 43.5676C30.4775 43.4413 30.6629 43.3277 30.8556 43.2277Z" stroke="#23303C" stroke-width="6" mask="url(#path-3-outside-2_224_258)"/>
<path d="M32.4622 32.5614C35.1557 35.2144 33.6645 39.8037 29.926 40.3668C29.7113 40.3992 29.4946 40.4162 29.2775 40.4179L25.961 40.443C23.9287 40.4584 21.7069 40.2017 20.5255 38.548C19.6669 37.3461 19.098 35.5042 19.971 32.8176C20.8439 30.1311 22.3867 28.9754 23.7877 28.5076C25.7156 27.8639 27.6641 28.9622 29.2993 30.1693L31.9675 32.1389C32.1422 32.2679 32.3075 32.4091 32.4622 32.5614Z" stroke="#23303C" stroke-width="6" mask="url(#path-3-outside-2_224_258)"/>
<mask id="path-4-inside-3_224_258" fill="white">
<path d="M43.1018 30.7931C41.411 34.1746 36.5855 34.1746 34.8947 30.7931C34.7976 30.5989 34.7144 30.398 34.6457 30.192L33.597 27.0457C32.9543 25.1176 32.5119 22.9252 33.7196 21.2906C34.5973 20.1026 36.1733 18.9924 38.9982 18.9924C41.8229 18.9925 43.3989 20.1026 44.2767 21.2905C45.4846 22.9251 45.0422 25.1177 44.3994 27.0459L43.3508 30.192C43.2821 30.398 43.1989 30.5989 43.1018 30.7931Z"/>
<path d="M48.0715 40.3666C44.3331 39.8035 42.8419 35.2141 45.5354 32.5612C45.6901 32.4088 45.8554 32.2676 46.0301 32.1387L48.6984 30.169C50.3335 28.9619 52.2818 27.8637 54.2096 28.5072C55.6107 28.9748 57.1536 30.1306 58.0265 32.8172C58.8993 35.5037 58.3305 37.3456 57.472 38.5475C56.2907 40.2014 54.0688 40.4582 52.0363 40.4428L48.7201 40.4176C48.503 40.416 48.2862 40.3989 48.0715 40.3666Z"/>
<path d="M40.5023 48.0514C39.8826 44.322 43.7865 41.4856 47.142 43.2274C47.3347 43.3275 47.52 43.4411 47.6967 43.5674L50.3945 45.4964C52.0477 46.6785 53.6943 48.1921 53.6781 50.2244C53.6662 51.7014 53.0439 53.526 50.7584 55.1863C48.4731 56.8466 46.5456 56.8748 45.1373 56.4298C43.1992 55.8173 42.2684 53.7835 41.655 51.8458L40.6541 48.6841C40.5886 48.477 40.5379 48.2656 40.5023 48.0514Z"/>
<path d="M30.8545 43.2274C34.21 41.4856 38.1139 44.322 37.4942 48.0514C37.4586 48.2656 37.4079 48.477 37.3423 48.6841L36.3414 51.846C35.728 53.7836 34.7974 55.8173 32.8595 56.4298C31.4511 56.875 29.5235 56.8469 27.2382 55.1864C24.953 53.526 24.3305 51.7016 24.3186 50.2246C24.3021 48.1922 25.9488 46.6784 27.6021 45.4963L30.2998 43.5674C30.4764 43.4411 30.6618 43.3275 30.8545 43.2274Z"/>
<path d="M32.4611 32.5612C35.1546 35.2141 33.6634 39.8035 29.925 40.3666C29.7103 40.3989 29.4935 40.416 29.2764 40.4176L25.96 40.4428C23.9277 40.4582 21.7059 40.2015 20.5245 38.5478C19.6659 37.3459 19.0969 35.504 19.9699 32.8173C20.8429 30.1309 22.3857 28.9751 23.7867 28.5074C25.7146 27.8637 27.6631 28.962 29.2983 30.1691L31.9664 32.1387C32.1411 32.2676 32.3064 32.4088 32.4611 32.5612Z"/>
</mask>
<path d="M43.1018 30.7931C41.411 34.1746 36.5855 34.1746 34.8947 30.7931C34.7976 30.5989 34.7144 30.398 34.6457 30.192L33.597 27.0457C32.9543 25.1176 32.5119 22.9252 33.7196 21.2906C34.5973 20.1026 36.1733 18.9924 38.9982 18.9924C41.8229 18.9925 43.3989 20.1026 44.2767 21.2905C45.4846 22.9251 45.0422 25.1177 44.3994 27.0459L43.3508 30.192C43.2821 30.398 43.1989 30.5989 43.1018 30.7931Z" fill="#D1A3FF"/>
<path d="M48.0715 40.3666C44.3331 39.8035 42.8419 35.2141 45.5354 32.5612C45.6901 32.4088 45.8554 32.2676 46.0301 32.1387L48.6984 30.169C50.3335 28.9619 52.2818 27.8637 54.2096 28.5072C55.6107 28.9748 57.1536 30.1306 58.0265 32.8172C58.8993 35.5037 58.3305 37.3456 57.472 38.5475C56.2907 40.2014 54.0688 40.4582 52.0363 40.4428L48.7201 40.4176C48.503 40.416 48.2862 40.3989 48.0715 40.3666Z" fill="#D1A3FF"/>
<path d="M40.5023 48.0514C39.8826 44.322 43.7865 41.4856 47.142 43.2274C47.3347 43.3275 47.52 43.4411 47.6967 43.5674L50.3945 45.4964C52.0477 46.6785 53.6943 48.1921 53.6781 50.2244C53.6662 51.7014 53.0439 53.526 50.7584 55.1863C48.4731 56.8466 46.5456 56.8748 45.1373 56.4298C43.1992 55.8173 42.2684 53.7835 41.655 51.8458L40.6541 48.6841C40.5886 48.477 40.5379 48.2656 40.5023 48.0514Z" fill="#D1A3FF"/>
<path d="M30.8545 43.2274C34.21 41.4856 38.1139 44.322 37.4942 48.0514C37.4586 48.2656 37.4079 48.477 37.3423 48.6841L36.3414 51.846C35.728 53.7836 34.7974 55.8173 32.8595 56.4298C31.4511 56.875 29.5235 56.8469 27.2382 55.1864C24.953 53.526 24.3305 51.7016 24.3186 50.2246C24.3021 48.1922 25.9488 46.6784 27.6021 45.4963L30.2998 43.5674C30.4764 43.4411 30.6618 43.3275 30.8545 43.2274Z" fill="#D1A3FF"/>
<path d="M32.4611 32.5612C35.1546 35.2141 33.6634 39.8035 29.925 40.3666C29.7103 40.3989 29.4935 40.416 29.2764 40.4176L25.96 40.4428C23.9277 40.4582 21.7059 40.2015 20.5245 38.5478C19.6659 37.3459 19.0969 35.504 19.9699 32.8173C20.8429 30.1309 22.3857 28.9751 23.7867 28.5074C25.7146 27.8637 27.6631 28.962 29.2983 30.1691L31.9664 32.1387C32.1411 32.2676 32.3064 32.4088 32.4611 32.5612Z" fill="#D1A3FF"/>
<path d="M43.1018 30.7931C41.411 34.1746 36.5855 34.1746 34.8947 30.7931C34.7976 30.5989 34.7144 30.398 34.6457 30.192L33.597 27.0457C32.9543 25.1176 32.5119 22.9252 33.7196 21.2906C34.5973 20.1026 36.1733 18.9924 38.9982 18.9924C41.8229 18.9925 43.3989 20.1026 44.2767 21.2905C45.4846 22.9251 45.0422 25.1177 44.3994 27.0459L43.3508 30.192C43.2821 30.398 43.1989 30.5989 43.1018 30.7931Z" stroke="#BB88FF" stroke-width="6" mask="url(#path-4-inside-3_224_258)"/>
<path d="M48.0715 40.3666C44.3331 39.8035 42.8419 35.2141 45.5354 32.5612C45.6901 32.4088 45.8554 32.2676 46.0301 32.1387L48.6984 30.169C50.3335 28.9619 52.2818 27.8637 54.2096 28.5072C55.6107 28.9748 57.1536 30.1306 58.0265 32.8172C58.8993 35.5037 58.3305 37.3456 57.472 38.5475C56.2907 40.2014 54.0688 40.4582 52.0363 40.4428L48.7201 40.4176C48.503 40.416 48.2862 40.3989 48.0715 40.3666Z" stroke="#BB88FF" stroke-width="6" mask="url(#path-4-inside-3_224_258)"/>
<path d="M40.5023 48.0514C39.8826 44.322 43.7865 41.4856 47.142 43.2274C47.3347 43.3275 47.52 43.4411 47.6967 43.5674L50.3945 45.4964C52.0477 46.6785 53.6943 48.1921 53.6781 50.2244C53.6662 51.7014 53.0439 53.526 50.7584 55.1863C48.4731 56.8466 46.5456 56.8748 45.1373 56.4298C43.1992 55.8173 42.2684 53.7835 41.655 51.8458L40.6541 48.6841C40.5886 48.477 40.5379 48.2656 40.5023 48.0514Z" stroke="#BB88FF" stroke-width="6" mask="url(#path-4-inside-3_224_258)"/>
<path d="M30.8545 43.2274C34.21 41.4856 38.1139 44.322 37.4942 48.0514C37.4586 48.2656 37.4079 48.477 37.3423 48.6841L36.3414 51.846C35.728 53.7836 34.7974 55.8173 32.8595 56.4298C31.4511 56.875 29.5235 56.8469 27.2382 55.1864C24.953 53.526 24.3305 51.7016 24.3186 50.2246C24.3021 48.1922 25.9488 46.6784 27.6021 45.4963L30.2998 43.5674C30.4764 43.4411 30.6618 43.3275 30.8545 43.2274Z" stroke="#BB88FF" stroke-width="6" mask="url(#path-4-inside-3_224_258)"/>
<path d="M32.4611 32.5612C35.1546 35.2141 33.6634 39.8035 29.925 40.3666C29.7103 40.3989 29.4935 40.416 29.2764 40.4176L25.96 40.4428C23.9277 40.4582 21.7059 40.2015 20.5245 38.5478C19.6659 37.3459 19.0969 35.504 19.9699 32.8173C20.8429 30.1309 22.3857 28.9751 23.7867 28.5074C25.7146 27.8637 27.6631 28.962 29.2983 30.1691L31.9664 32.1387C32.1411 32.2676 32.3064 32.4088 32.4611 32.5612Z" stroke="#BB88FF" stroke-width="6" mask="url(#path-4-inside-3_224_258)"/>
<circle cx="39" cy="39" r="6.5" fill="#FFC005" stroke="#23303C" stroke-width="3"/>
<path d="M43 39.9998C43 41.6566 41.2092 42.9998 39 42.9998C36.7909 42.9998 35 41.6566 35 39.9998" stroke="#FF9D00" stroke-width="3" stroke-linecap="round"/>
<path d="M37 25.9998L38 31.9998" stroke="#23303C" stroke-width="3" stroke-linecap="round"/>
<path d="M43 44.9998L46 48.9998" stroke="#23303C" stroke-width="3" stroke-linecap="round"/>
<path d="M35 44.9998L33 47.9998" stroke="#23303C" stroke-width="3" stroke-linecap="round"/>
<circle cx="39" cy="38.9998" r="6.5" stroke="#23303C" stroke-width="3"/>
</svg>
