<svg width="78" height="78" viewBox="0 0 78 78" fill="none" xmlns="http://www.w3.org/2000/svg">
<path d="M44.8421 31.7734L44.6731 31.6405C42.9666 30.2325 42.6461 27.7184 43.9808 25.9227C46.0983 23.0742 48.8012 20.7117 51.9076 18.9947L52.7622 18.5227C54.212 17.7214 55.9966 17.8412 57.3261 18.8294L57.395 18.8807C59.8283 20.6897 59.5778 24.4086 56.9241 25.8754C54.6018 27.159 52.5515 28.96 50.9617 31.0987C49.6041 32.925 46.9844 33.366 45.1038 31.968L44.8421 31.7734Z" fill="#4DEB9C" stroke="white" stroke-width="6"/>
<path d="M26.048 29.928C30.953 23.3295 40.8119 22.6416 47.6954 27.7581C54.4944 32.8121 56.9961 42.2076 52.0353 48.8811L52.0265 48.8938L52.0167 48.9055C46.8224 55.7418 39.9242 58.9163 34.4503 60.384C31.7076 61.1194 29.2825 61.4378 27.5333 61.5735C26.6569 61.6415 25.9444 61.6643 25.4396 61.6692C25.1872 61.6716 24.9861 61.6701 24.8419 61.6672C24.7698 61.6658 24.7112 61.6638 24.6681 61.6624C24.6469 61.6616 24.6293 61.661 24.6154 61.6604C24.6084 61.6601 24.6019 61.6596 24.5968 61.6594L24.587 61.6594L24.7228 58.6624L24.5841 61.6594L22.5978 61.5676L21.9083 59.7014C21.8375 59.5094 20.3996 55.5605 20.1857 49.9592C19.9712 44.3434 20.9851 36.8894 26.0285 29.9534L26.048 29.928Z" fill="#4DEB9C" stroke="white" stroke-width="6"/>
<path d="M45.7368 30.5695L45.5247 30.3948C44.5216 29.4778 44.3563 27.9318 45.1844 26.8175C47.1741 24.1409 49.7137 21.921 52.6325 20.3075L53.4872 19.8355C54.4222 19.3187 55.5736 19.3958 56.431 20.0332L56.5 20.0844C58.0576 21.2425 57.8974 23.6232 56.1988 24.5623L55.7313 24.8293C53.4118 26.1955 51.3664 28.0396 49.7577 30.2037C48.8842 31.3788 47.2008 31.6577 45.9985 30.764L45.7368 30.5695Z" fill="#4DEB9C" stroke="#23303C" stroke-width="3"/>
<path d="M24.7233 58.6623C24.7047 58.6119 19.3925 44.1808 28.4552 31.7174C32.1989 26.6812 40.107 25.8552 45.9063 30.166C51.7055 34.4769 53.3716 42.0548 49.6279 47.091C40.2886 59.3824 24.7233 58.6623 24.7233 58.6623Z" fill="#4DEB9C"/>
<path d="M49.0284 48.1039C52.8859 43.2325 52.5649 35.3343 47.0411 30.8276L44.8892 32.9795C48.9834 36.5783 49.0018 42.9143 46.5141 46.0809C42.2579 51.3372 36.7464 53.6983 32.1676 54.7397C30.3895 55.1441 28.7796 55.3424 27.4835 55.4344C26.9261 55.474 26.4027 55.726 26.0413 56.1521L23.9485 58.6195C23.9611 58.6614 23.9075 58.803 23.9075 58.803C23.9912 58.8106 38.8708 60.0281 48.5702 48.6553L49.0284 48.1039Z" fill="#079B40"/>
<path d="M27.2501 30.8228C31.5745 25.0054 40.4586 24.2487 46.7999 28.9624C53.0989 33.6448 55.183 42.131 50.8312 47.9858L50.8263 47.9927L50.8214 47.9985C45.8894 54.4895 39.327 57.523 34.0607 58.9351C31.4246 59.6419 29.0933 59.9485 27.4161 60.0786C26.5767 60.1437 25.8983 60.1648 25.424 60.1694C25.1869 60.1717 25.0005 60.17 24.8702 60.1675C24.8051 60.1662 24.7533 60.1648 24.7169 60.1636C24.699 60.163 24.6846 60.162 24.674 60.1616C24.6686 60.1614 24.6638 60.1618 24.6603 60.1616C24.6588 60.1616 24.6575 60.1607 24.6564 60.1606L24.6544 60.1606L24.7218 58.6626L24.6525 60.1606L23.6593 60.1147L23.3146 59.1821C23.2745 59.0735 21.8894 55.2885 21.6837 49.9019C21.4778 44.5079 22.4539 37.4192 27.2413 30.8354L27.2452 30.8286L27.2501 30.8228Z" stroke="#23303C" stroke-width="3"/>
<path d="M28.4552 31.7176C32.1622 26.7308 39.9528 25.8716 45.7355 30.0407L43.4928 32.4136C38.957 29.3903 33.4749 30.4002 31.06 33.6227C27.0844 39.0943 26.2302 45.0291 26.4094 49.7214C26.479 51.5435 26.7041 53.1499 26.9507 54.4257C27.0568 54.9744 26.9488 55.5451 26.6307 56.0045L24.7891 58.6646C24.7454 58.6633 24.7229 58.6623 24.7229 58.6623C24.6939 58.5835 19.5663 44.6153 28.0412 32.3029L28.4552 31.7176Z" fill="#ACFFD5"/>
<path d="M46.547 29.3028C40.9876 34.4468 34.0628 43.8716 29.5364 52.1862" stroke="#23303C" stroke-width="3" stroke-linecap="round"/>
</svg>
